<svg width="46" height="43" viewBox="0 0 46 43" fill="none" xmlns="http://www.w3.org/2000/svg">
  <path d="M25.6104 30.5968C27.8856 30.2717 29.9357 28.98 31.2108 27.0215L44.6869 6.17814C45.737 4.55301 45.4703 2.40283 44.0535 1.07773C42.6367 -0.247378 40.4782 -0.364053 38.9281 0.802707L19.2015 15.6039C17.2014 17.104 16.018 19.4459 16.0013 21.9461L25.6104 30.5968ZM23.9769 32.7136L14.3095 24.0129C9.32575 24.1962 5.33376 28.3049 5.33376 33.3386C5.33376 33.6637 5.35043 33.9887 5.38376 34.3054C5.53378 35.7638 4.5337 37.339 3.06691 37.339H2.66688C1.19176 37.339 0 38.5307 0 40.0058C0 41.481 1.19176 42.6727 2.66688 42.6727H14.6678C19.8266 42.6727 24.0019 38.4974 24.0019 33.3386C24.0019 33.1303 23.9936 32.9219 23.9853 32.7136H23.9769Z" fill="#F186AD"/>
</svg>
