<svg width="46" height="36" viewBox="0 0 46 36" fill="none" xmlns="http://www.w3.org/2000/svg">
  <path d="M22.659 0C16.3014 0 11.2105 2.89557 7.50449 6.34194C3.82208 9.75682 1.35927 13.8484 0.194743 16.6574C-0.0649144 17.279 -0.0649144 17.9714 0.194743 18.593C1.35927 21.4021 3.82208 25.4936 7.50449 28.9085C11.2105 32.3549 16.3014 35.2505 22.659 35.2505C29.0167 35.2505 34.1076 32.3549 37.8136 28.9085C41.496 25.4858 43.9588 21.4021 45.1312 18.593C45.3909 17.9714 45.3909 17.279 45.1312 16.6574C43.9588 13.8484 41.496 9.75682 37.8136 6.34194C34.1076 2.89557 29.0167 0 22.659 0ZM11.3285 17.6252C11.3285 14.6202 12.5223 11.7382 14.6472 9.61335C16.772 7.48847 19.654 6.29473 22.659 6.29473C25.6641 6.29473 28.546 7.48847 30.6709 9.61335C32.7958 11.7382 33.9896 14.6202 33.9896 17.6252C33.9896 20.6303 32.7958 23.5122 30.6709 25.6371C28.546 27.762 25.6641 28.9557 22.659 28.9557C19.654 28.9557 16.772 27.762 14.6472 25.6371C12.5223 23.5122 11.3285 20.6303 11.3285 17.6252ZM22.659 12.5895C22.659 15.367 20.4008 17.6252 17.6233 17.6252C17.0646 17.6252 16.5296 17.5308 16.026 17.3656C15.5932 17.2239 15.0896 17.4915 15.1054 17.9478C15.129 18.4908 15.2077 19.0337 15.3572 19.5766C16.4351 23.6052 20.5818 25.9972 24.6104 24.9192C28.639 23.8413 31.031 19.6946 29.9531 15.666C29.0797 12.4006 26.192 10.2053 22.9817 10.0716C22.5253 10.0558 22.2578 10.5515 22.3994 10.9922C22.5646 11.4957 22.659 12.0308 22.659 12.5895Z" fill="#F186AD"/>
</svg>
