<svg width="39" height="46" viewBox="0 0 39 46" fill="none" xmlns="http://www.w3.org/2000/svg">
  <path d="M19.1422 4.23896C19.7054 2.54952 18.7903 0.729355 17.1109 0.166209C15.4315 -0.396938 13.6013 0.518175 13.0381 2.19756L0.166209 40.8133C-0.396938 42.5027 0.518175 44.3229 2.19756 44.8861C3.87694 45.4492 5.70717 44.5341 6.27031 42.8547L19.1422 4.23896ZM26.2721 0.0455348C24.5223 -0.246095 22.863 0.940535 22.5714 2.69031L16.1354 41.3061C15.8438 43.0558 17.0304 44.7151 18.7802 45.0067C20.53 45.2984 22.1893 44.1117 22.4809 42.362L28.9168 3.74621C29.2085 1.99643 28.0218 0.337164 26.2721 0.0455348ZM35.393 0.00530991C33.6131 0.00530991 32.175 1.44334 32.175 3.22329V41.839C32.175 43.619 33.6131 45.057 35.393 45.057C37.173 45.057 38.611 43.619 38.611 41.839V3.22329C38.611 1.44334 37.173 0.00530991 35.393 0.00530991Z" fill="#F186AD"/>
</svg>
