<svg width="46" height="46" viewBox="0 0 46 46" fill="none" xmlns="http://www.w3.org/2000/svg">
  <path d="M19.0303 2.09922C18.623 0.585298 17.0737 -0.308887 15.5598 0.0983659C14.0459 0.505619 13.1517 2.05495 13.5589 3.56887L18.2423 21.0542C18.4637 21.8687 17.8439 22.6655 17.0029 22.6655C16.4363 22.6655 15.9405 22.2936 15.7723 21.7536L11.9211 9.09334C11.4695 7.59713 9.88479 6.75606 8.38858 7.20758C6.89237 7.6591 6.05131 9.24385 6.50283 10.7401L12.0627 29.0133C12.2752 29.7127 11.4253 30.2351 10.8941 29.7304L5.98933 25.0559C4.5728 23.7102 2.33291 23.7633 0.978354 25.1798C-0.376204 26.5963 -0.31423 28.8362 1.1023 30.1908L11.0534 39.6639C14.8692 43.3026 19.9422 45.33 25.2187 45.33H26.1838H26.9097C26.9186 45.33 26.9186 45.3211 26.9186 45.3211L26.9274 45.3123C32.0889 45.0024 36.5421 41.4876 38.0206 36.4855L45.2095 12.1389C45.6522 10.6427 44.7934 9.06678 43.2972 8.61526C41.801 8.16374 40.2251 9.03137 39.7736 10.5276L36.4359 21.8775C36.2943 22.3468 35.8693 22.6655 35.3735 22.6655C34.6741 22.6655 34.1517 22.0192 34.2934 21.3286L37.4806 6.25142C37.8082 4.7198 36.8254 3.21473 35.2938 2.89602C33.7622 2.5773 32.2571 3.55116 31.9384 5.08279L28.6096 20.8151C28.3794 21.8952 27.4321 22.6655 26.3254 22.6655C25.2719 22.6655 24.3423 21.9572 24.0767 20.9391L19.0303 2.09922Z" fill="#F186AD"/>
</svg>
