<svg width="83" height="26" viewBox="0 0 83 26" fill="none" xmlns="http://www.w3.org/2000/svg">
  <path d="M14.7461 3.92188C14.7461 4.61719 14.6094 5.27344 14.3359 5.89062C14.0625 6.5 13.7148 7.0625 13.293 7.57812C12.8789 8.09375 12.4219 8.5625 11.9219 8.98438C11.4297 9.39844 10.9609 9.75781 10.5156 10.0625C11.1406 10.1172 11.7617 10.2695 12.3789 10.5195C13.0039 10.7617 13.5625 11.1016 14.0547 11.5391C14.5547 11.9688 14.957 12.4922 15.2617 13.1094C15.5742 13.7188 15.7305 14.4141 15.7305 15.1953C15.7305 15.8359 15.6367 16.4141 15.4492 16.9297C15.2695 17.4375 15.0273 17.8945 14.7227 18.3008C14.418 18.6992 14.0703 19.043 13.6797 19.332C13.2969 19.6211 12.9062 19.8594 12.5078 20.0469C12.1094 20.2344 11.7148 20.3711 11.3242 20.457C10.9414 20.5508 10.6016 20.5977 10.3047 20.5977C9.55469 20.5977 8.92969 20.5078 8.42969 20.3281C7.9375 20.1484 7.54297 19.9297 7.24609 19.6719C6.95703 19.4062 6.75391 19.1289 6.63672 18.8398C6.51953 18.5508 6.46094 18.2969 6.46094 18.0781C6.46094 17.7422 6.53125 17.4219 6.67188 17.1172C6.82031 16.8047 7.01562 16.5234 7.25781 16.2734C7.5 16.0234 7.78125 15.8047 8.10156 15.6172C8.42188 15.4219 8.75391 15.2734 9.09766 15.1719L9.34375 15.5586C8.85156 15.8242 8.48828 16.168 8.25391 16.5898C8.01953 17.0039 7.90234 17.4219 7.90234 17.8438C7.90234 18.0781 7.94922 18.3242 8.04297 18.582C8.14453 18.832 8.29297 19.0625 8.48828 19.2734C8.69141 19.4844 8.94141 19.6602 9.23828 19.8008C9.54297 19.9336 9.89844 20 10.3047 20C10.8984 20 11.4531 19.8906 11.9688 19.6719C12.4844 19.4453 12.9297 19.1367 13.3047 18.7461C13.6875 18.3477 13.9844 17.8828 14.1953 17.3516C14.4141 16.8203 14.5234 16.2461 14.5234 15.6289C14.5234 14.9961 14.3906 14.4375 14.125 13.9531C13.8672 13.4688 13.5195 13.0625 13.082 12.7344C12.6523 12.3984 12.1523 12.1445 11.582 11.9727C11.0195 11.8008 10.4336 11.7148 9.82422 11.7148C9.57422 11.7148 9.32812 11.7305 9.08594 11.7617C8.84375 11.7852 8.61328 11.8203 8.39453 11.8672C8.18359 11.9062 7.99219 11.9453 7.82031 11.9844C7.64844 12.0234 7.51562 12.0547 7.42188 12.0781L7.30469 11.9609L8.38281 10.2852C8.46875 10.2617 8.56641 10.2344 8.67578 10.2031C8.76953 10.1797 8.88281 10.1562 9.01562 10.1328C9.14844 10.1016 9.29688 10.0781 9.46094 10.0625C9.83594 9.83594 10.2266 9.55078 10.6328 9.20703C11.0469 8.85547 11.4219 8.45312 11.7578 8C12.1016 7.53906 12.3828 7.02344 12.6016 6.45312C12.8281 5.88281 12.9414 5.26172 12.9414 4.58984C12.9414 3.45703 12.6719 2.60156 12.1328 2.02344C11.5938 1.44531 10.8242 1.15625 9.82422 1.15625C9.24609 1.15625 8.66406 1.28125 8.07812 1.53125C7.49219 1.77344 6.92578 2.14844 6.37891 2.65625C5.83984 3.16406 5.33203 3.80469 4.85547 4.57812C4.38672 5.35156 3.97656 6.26172 3.625 7.30859C3.28125 8.35547 3.00781 9.54688 2.80469 10.8828C2.60156 12.2188 2.5 13.6992 2.5 15.3242C2.5 15.9961 2.52734 16.6172 2.58203 17.1875C2.64453 17.7578 2.73438 18.2539 2.85156 18.6758C2.97656 19.0898 3.12891 19.4141 3.30859 19.6484C3.48828 19.8828 3.69922 20 3.94141 20C4.18359 20 4.375 19.8242 4.51562 19.4727C4.66406 19.1133 4.77344 18.6484 4.84375 18.0781C4.92188 17.5 4.96875 16.8555 4.98438 16.1445C5.00781 15.4336 5.01953 14.7188 5.01953 14C5.01953 12.9062 5.00391 11.8789 4.97266 10.918C4.94141 9.94922 4.90625 9.08594 4.86719 8.32812C4.83594 7.57031 4.80469 6.9375 4.77344 6.42969C4.74219 5.92188 4.72266 5.58203 4.71484 5.41016L6.07422 5C6.11328 5.0625 6.16797 5.25 6.23828 5.5625C6.30859 5.875 6.37891 6.28906 6.44922 6.80469C6.51953 7.3125 6.57812 7.90625 6.625 8.58594C6.67969 9.25781 6.70703 9.98438 6.70703 10.7656C6.70703 12.0859 6.66797 13.2461 6.58984 14.2461C6.51953 15.2383 6.41797 16.1016 6.28516 16.8359C6.15234 17.5625 5.99609 18.168 5.81641 18.6523C5.64453 19.1367 5.45312 19.5234 5.24219 19.8125C5.03906 20.0938 4.82422 20.293 4.59766 20.4102C4.37891 20.5352 4.16016 20.5977 3.94141 20.5977C3.46484 20.5977 3.03516 20.4336 2.65234 20.1055C2.27734 19.7852 1.95703 19.3594 1.69141 18.8281C1.42578 18.2891 1.22266 17.6758 1.08203 16.9883C0.941406 16.293 0.871094 15.5781 0.871094 14.8438C0.871094 13.7891 0.96875 12.6992 1.16406 11.5742C1.35938 10.4492 1.64844 9.35156 2.03125 8.28125C2.41406 7.20312 2.88672 6.18359 3.44922 5.22266C4.01172 4.25391 4.66016 3.41016 5.39453 2.69141C6.12891 1.96484 6.94531 1.39062 7.84375 0.96875C8.75 0.539062 9.73047 0.324219 10.7852 0.324219C11.3867 0.324219 11.9297 0.40625 12.4141 0.570312C12.9062 0.726562 13.3242 0.960937 13.668 1.27344C14.0117 1.57812 14.2773 1.95312 14.4648 2.39844C14.6523 2.84375 14.7461 3.35156 14.7461 3.92188ZM20.8867 18.6758C21.1602 18.6758 21.4375 18.6055 21.7188 18.4648C22.0078 18.3242 22.2969 18.1055 22.5859 17.8086C22.8828 17.5117 23.1875 17.1289 23.5 16.6602C23.8125 16.1836 24.1328 15.6172 24.4609 14.9609L24.5781 14.7148L25.0586 15.0781L24.9414 15.3242C24.5195 16.1602 24.0977 16.875 23.6758 17.4688C23.2617 18.0625 22.8516 18.5469 22.4453 18.9219C22.0469 19.2969 21.6523 19.5703 21.2617 19.7422C20.8711 19.9141 20.4961 20 20.1367 20C19.6289 20 19.1758 19.8945 18.7773 19.6836C18.3789 19.4727 18.043 19.1875 17.7695 18.8281C17.4961 18.4609 17.2891 18.0391 17.1484 17.5625C17 17.0781 16.9258 16.5703 16.9258 16.0391C16.9258 15.1953 17.043 14.4297 17.2773 13.7422C17.5039 13.0469 17.8086 12.4531 18.1914 11.9609C18.582 11.4688 19.0234 11.0859 19.5156 10.8125C20.0078 10.5391 20.5195 10.4023 21.0508 10.4023C21.5898 10.4023 22 10.5391 22.2812 10.8125C22.5703 11.0859 22.7148 11.4297 22.7148 11.8438C22.7148 12.2422 22.6016 12.6172 22.375 12.9688C22.1484 13.3125 21.8398 13.6523 21.4492 13.9883C21.0664 14.3164 20.6211 14.6445 20.1133 14.9727C19.6055 15.293 19.0703 15.625 18.5078 15.9688C18.5625 16.375 18.6562 16.7461 18.7891 17.082C18.9219 17.4102 19.0898 17.6953 19.293 17.9375C19.4961 18.1719 19.7305 18.3555 19.9961 18.4883C20.2617 18.6133 20.5586 18.6758 20.8867 18.6758ZM21.25 12.1953C21.25 11.8828 21.1641 11.6367 20.9922 11.457C20.8281 11.2773 20.625 11.1875 20.3828 11.1875C20.1797 11.1875 19.9648 11.2617 19.7383 11.4102C19.5117 11.5508 19.3047 11.7812 19.1172 12.1016C18.9297 12.4141 18.7734 12.8164 18.6484 13.3086C18.5234 13.8008 18.4609 14.3984 18.4609 15.1016V15.3711C18.7266 15.2305 19.0195 15.0469 19.3398 14.8203C19.668 14.5859 19.9727 14.3281 20.2539 14.0469C20.5352 13.7656 20.7695 13.4688 20.957 13.1562C21.1523 12.8359 21.25 12.5156 21.25 12.1953ZM31.6797 17.0938C31.6797 17.5391 31.7188 17.9141 31.7969 18.2188C31.875 18.5234 32.0117 18.6758 32.207 18.6758C32.3242 18.6758 32.4492 18.6211 32.582 18.5117C32.7227 18.3945 32.8828 18.207 33.0625 17.9492C33.2422 17.6914 33.4453 17.3594 33.6719 16.9531C33.9062 16.5391 34.1719 16.0352 34.4688 15.4414L34.8203 14.7148L35.3008 15.0781L34.9492 15.8047C34.6211 16.4609 34.3125 17.0508 34.0234 17.5742C33.7422 18.0898 33.4727 18.5273 33.2148 18.8867C32.957 19.2461 32.7031 19.5234 32.4531 19.7188C32.2109 19.9062 31.9688 20 31.7266 20C31.4688 20 31.25 19.9297 31.0703 19.7891C30.8984 19.6484 30.7539 19.457 30.6367 19.2148C30.5195 18.9648 30.4297 18.6797 30.3672 18.3594C30.3047 18.0312 30.2617 17.6836 30.2383 17.3164C30.0508 17.6914 29.8438 18.043 29.6172 18.3711C29.3906 18.6914 29.1523 18.9727 28.9023 19.2148C28.6602 19.457 28.4062 19.6484 28.1406 19.7891C27.875 19.9297 27.6094 20 27.3438 20C26.9531 20 26.5742 19.918 26.207 19.7539C25.8398 19.5898 25.5117 19.3398 25.2227 19.0039C24.9414 18.668 24.7148 18.2461 24.543 17.7383C24.3711 17.2227 24.2852 16.6172 24.2852 15.9219C24.2852 15.1094 24.3906 14.3672 24.6016 13.6953C24.8125 13.0156 25.0977 12.4336 25.457 11.9492C25.8164 11.457 26.2305 11.0781 26.6992 10.8125C27.168 10.5391 27.6602 10.4023 28.1758 10.4023C28.4883 10.4023 28.7773 10.4727 29.043 10.6133C29.3086 10.7539 29.5391 10.9258 29.7344 11.1289C29.9375 11.3242 30.1055 11.5352 30.2383 11.7617C30.3711 11.9805 30.4609 12.168 30.5078 12.3242L30.6484 11.1875C30.6641 11.0391 30.7344 10.9141 30.8594 10.8125C30.9922 10.7109 31.1367 10.6328 31.293 10.5781C31.4492 10.5156 31.6016 10.4727 31.75 10.4492C31.8984 10.418 32.0039 10.4023 32.0664 10.4023C32.1602 10.4023 32.2227 10.418 32.2539 10.4492C32.2852 10.4805 32.3008 10.543 32.3008 10.6367C32.3008 10.7539 32.2656 10.9922 32.1953 11.3516C32.1328 11.7031 32.0625 12.1562 31.9844 12.7109C31.9141 13.2578 31.8438 13.9023 31.7734 14.6445C31.7109 15.3867 31.6797 16.2031 31.6797 17.0938ZM30.3906 14C30.3906 13.6406 30.3359 13.2891 30.2266 12.9453C30.1172 12.5938 29.9688 12.2852 29.7812 12.0195C29.5938 11.7461 29.375 11.5273 29.125 11.3633C28.8828 11.1992 28.625 11.1172 28.3516 11.1172C28.0156 11.1172 27.6992 11.2148 27.4023 11.4102C27.1133 11.5977 26.8594 11.8672 26.6406 12.2188C26.4297 12.5625 26.2617 12.9805 26.1367 13.4727C26.0117 13.957 25.9492 14.4922 25.9492 15.0781C25.9492 16.25 26.1328 17.1445 26.5 17.7617C26.8672 18.3711 27.3555 18.6758 27.9648 18.6758C28.2305 18.6758 28.5039 18.5703 28.7852 18.3594C29.0742 18.1406 29.3359 17.832 29.5703 17.4336C29.8125 17.0273 30.0078 16.5352 30.1562 15.957C30.3125 15.3789 30.3906 14.7266 30.3906 14ZM39.625 17.457C39.5859 17.5195 39.5273 17.6289 39.4492 17.7852C39.3789 17.9336 39.2852 18.1016 39.168 18.2891C39.0586 18.4766 38.9258 18.6719 38.7695 18.875C38.6211 19.0781 38.4492 19.2617 38.2539 19.4258C38.0586 19.5898 37.8398 19.7266 37.5977 19.8359C37.3633 19.9453 37.1016 20 36.8125 20C36.5859 20 36.3516 19.9531 36.1094 19.8594C35.8672 19.7656 35.6406 19.5938 35.4297 19.3438C35.2266 19.0938 35.0586 18.7539 34.9258 18.3242C34.793 17.8867 34.7266 17.3242 34.7266 16.6367C34.7266 15.9805 34.75 15.3242 34.7969 14.668C34.8438 14.0039 34.8984 13.3984 34.9609 12.8516C35.0312 12.3047 35.0977 11.8477 35.1602 11.4805C35.2227 11.1133 35.2695 10.8906 35.3008 10.8125C35.332 10.7422 35.3945 10.6797 35.4883 10.625C35.582 10.5703 35.6875 10.5273 35.8047 10.4961C35.9297 10.4648 36.0547 10.4414 36.1797 10.4258C36.3125 10.4102 36.4258 10.4023 36.5195 10.4023C36.6445 10.4023 36.7422 10.4336 36.8125 10.4961C36.8906 10.5586 36.9297 10.6641 36.9297 10.8125C36.9297 10.8828 36.9141 11.0234 36.8828 11.2344C36.8594 11.4375 36.8281 11.6875 36.7891 11.9844C36.75 12.2812 36.707 12.6094 36.6602 12.9688C36.6211 13.3281 36.582 13.6953 36.543 14.0703C36.5039 14.4375 36.4688 14.8047 36.4375 15.1719C36.4141 15.5312 36.4023 15.8594 36.4023 16.1562C36.4023 17.0078 36.4922 17.6406 36.6719 18.0547C36.8594 18.4688 37.1641 18.6758 37.5859 18.6758C37.9453 18.6758 38.3086 18.4141 38.6758 17.8906C39.0508 17.3672 39.375 16.6055 39.6484 15.6055C39.6875 15.1836 39.7227 14.7344 39.7539 14.2578C39.793 13.7734 39.8281 13.3164 39.8594 12.8867C39.8906 12.4492 39.918 12.0586 39.9414 11.7148C39.9727 11.3711 40 11.125 40.0234 10.9766C40.0469 10.8672 40.1094 10.7773 40.2109 10.707C40.3125 10.6289 40.4258 10.5703 40.5508 10.5312C40.6836 10.4844 40.8086 10.4531 40.9258 10.4375C41.0508 10.4141 41.1445 10.4023 41.207 10.4023C41.3398 10.4023 41.4297 10.4336 41.4766 10.4961C41.5312 10.5508 41.5586 10.6406 41.5586 10.7656C41.5586 10.875 41.5469 11.0859 41.5234 11.3984C41.5078 11.7031 41.4844 12.0625 41.4531 12.4766C41.4297 12.8828 41.4023 13.3203 41.3711 13.7891C41.3398 14.2578 41.3086 14.7109 41.2773 15.1484C41.2539 15.5781 41.2305 15.9688 41.207 16.3203C41.1914 16.6719 41.1836 16.9375 41.1836 17.1172C41.1836 17.6484 41.2109 18.0664 41.2656 18.3711C41.3281 18.6758 41.4609 18.8281 41.6641 18.8281C41.8125 18.8281 41.9727 18.7344 42.1445 18.5469C42.3242 18.3516 42.5156 18.082 42.7188 17.7383C42.9297 17.3945 43.1562 16.9883 43.3984 16.5195C43.6406 16.043 43.9023 15.5234 44.1836 14.9609L44.3008 14.7148L44.7812 15.0781L44.6641 15.3242C44.2891 16.0664 43.957 16.7305 43.668 17.3164C43.3867 17.8945 43.1172 18.3828 42.8594 18.7812C42.6016 19.1797 42.3398 19.4844 42.0742 19.6953C41.8086 19.8984 41.5117 20 41.1836 20C40.8789 20 40.625 19.9414 40.4219 19.8242C40.2266 19.707 40.0703 19.5391 39.9531 19.3203C39.8359 19.1016 39.75 18.8359 39.6953 18.5234C39.6484 18.2109 39.625 17.8555 39.625 17.457ZM44.2656 16.1562C44.2656 15.3281 44.2969 14.4961 44.3594 13.6602C44.4219 12.8242 44.5039 11.9766 44.6055 11.1172H43.5391L43.668 10.4023H44.6992C44.8086 9.60547 44.918 8.80859 45.0273 8.01172C45.1445 7.20703 45.25 6.40234 45.3438 5.59766H46.5391C46.5234 5.76953 46.5 6.01953 46.4688 6.34766C46.4453 6.66797 46.4141 7.04297 46.375 7.47266C46.3438 7.89453 46.3125 8.35938 46.2812 8.86719C46.25 9.36719 46.2188 9.87891 46.1875 10.4023H48.4609L48.3438 11.1172H46.1406C46.1094 11.5625 46.082 12 46.0586 12.4297C46.0352 12.8594 46.0117 13.2695 45.9883 13.6602C45.9727 14.043 45.9609 14.3984 45.9531 14.7266C45.9453 15.0469 45.9414 15.3242 45.9414 15.5586C45.9414 16.1523 45.957 16.6484 45.9883 17.0469C46.0273 17.4453 46.082 17.7656 46.1523 18.0078C46.2305 18.25 46.3242 18.4219 46.4336 18.5234C46.5508 18.625 46.6836 18.6758 46.832 18.6758C47.0273 18.6758 47.2422 18.5781 47.4766 18.3828C47.7188 18.1797 47.9688 17.9102 48.2266 17.5742C48.4844 17.2383 48.7461 16.8477 49.0117 16.4023C49.2773 15.9492 49.5352 15.4688 49.7852 14.9609L49.9023 14.7148L50.3828 15.0781L50.2656 15.3242C49.9062 16.0508 49.5469 16.7031 49.1875 17.2812C48.8359 17.8594 48.4883 18.3516 48.1445 18.7578C47.8008 19.1562 47.4648 19.4648 47.1367 19.6836C46.8086 19.8945 46.4922 20 46.1875 20C45.8828 20 45.6094 19.9297 45.3672 19.7891C45.1328 19.6484 44.9336 19.4258 44.7695 19.1211C44.6055 18.8086 44.4805 18.4102 44.3945 17.9258C44.3086 17.4414 44.2656 16.8516 44.2656 16.1562ZM50.6523 10.7305C50.6836 10.6523 50.7578 10.5898 50.875 10.543C50.9922 10.4961 51.1172 10.4648 51.25 10.4492C51.3828 10.4258 51.5078 10.4141 51.625 10.4141C51.7422 10.4062 51.8203 10.4023 51.8594 10.4023C51.9766 10.4023 52.0508 10.4336 52.082 10.4961C52.1211 10.5508 52.1406 10.6406 52.1406 10.7656C52.1406 10.8281 52.1211 10.9688 52.082 11.1875C52.043 11.3984 51.9922 11.6641 51.9297 11.9844C51.875 12.3047 51.8125 12.668 51.7422 13.0742C51.6797 13.4805 51.6172 13.8984 51.5547 14.3281C51.5 14.7578 51.4531 15.1953 51.4141 15.6406C51.375 16.0781 51.3555 16.4922 51.3555 16.8828C51.3555 17.5625 51.4688 18.0742 51.6953 18.418C51.9219 18.7539 52.1836 18.9219 52.4805 18.9219C52.9961 18.9219 53.4531 18.543 53.8516 17.7852C54.25 17.0273 54.6641 15.918 55.0938 14.457V11.0469C55.0938 10.9141 55.1523 10.8086 55.2695 10.7305C55.3945 10.6445 55.5352 10.5781 55.6914 10.5312C55.8477 10.4844 56 10.4531 56.1484 10.4375C56.2969 10.4141 56.4023 10.4023 56.4648 10.4023C56.707 10.4023 56.8281 10.5234 56.8281 10.7656C56.8281 10.8516 56.8203 10.9961 56.8047 11.1992C56.7969 11.3945 56.7852 11.6289 56.7695 11.9023C56.7539 12.168 56.7383 12.4648 56.7227 12.793C56.7148 13.1133 56.7109 13.4375 56.7109 13.7656V18.5352C56.8516 18.3555 57.0273 18.1172 57.2383 17.8203C57.457 17.5234 57.6797 17.207 57.9062 16.8711C58.1406 16.5352 58.3633 16.1992 58.5742 15.8633C58.793 15.5273 58.9688 15.2266 59.1016 14.9609L59.2305 14.7148L59.7109 15.0781L59.582 15.3242C59.418 15.6523 59.2227 15.9922 58.9961 16.3438C58.7695 16.6953 58.5273 17.0508 58.2695 17.4102C58.0195 17.7617 57.7578 18.1133 57.4844 18.4648C57.2188 18.8086 56.9609 19.1367 56.7109 19.4492V22.0391C56.7109 22.7578 56.6445 23.3672 56.5117 23.8672C56.3867 24.375 56.2109 24.7852 55.9844 25.0977C55.7578 25.418 55.4922 25.6484 55.1875 25.7891C54.8828 25.9297 54.5508 26 54.1914 26C53.9648 26 53.7539 25.9648 53.5586 25.8945C53.3711 25.8242 53.207 25.7188 53.0664 25.5781C52.9258 25.4453 52.8164 25.2812 52.7383 25.0859C52.6602 24.8984 52.6211 24.6836 52.6211 24.4414C52.6211 24.0898 52.6836 23.7383 52.8086 23.3867C52.9414 23.0352 53.1211 22.6719 53.3477 22.2969C53.582 21.9219 53.8516 21.5352 54.1562 21.1367C54.4609 20.7461 54.7891 20.3359 55.1406 19.9062V16.3555C54.9453 16.8867 54.7344 17.3789 54.5078 17.832C54.2812 18.2773 54.0352 18.6602 53.7695 18.9805C53.5039 19.3008 53.2188 19.5508 52.9141 19.7305C52.6094 19.9102 52.2812 20 51.9297 20C51.6797 20 51.4219 19.9609 51.1562 19.8828C50.8984 19.7969 50.6562 19.6445 50.4297 19.4258C50.2109 19.207 50.0312 18.9141 49.8906 18.5469C49.75 18.1719 49.6797 17.6953 49.6797 17.1172C49.6797 16.4609 49.7188 15.793 49.7969 15.1133C49.875 14.4336 49.9648 13.8008 50.0664 13.2148C50.1758 12.6289 50.2852 12.1172 50.3945 11.6797C50.5039 11.2344 50.5898 10.918 50.6523 10.7305ZM54.0625 25.2852C54.1875 25.2852 54.3125 25.2578 54.4375 25.2031C54.5703 25.1562 54.6875 25.043 54.7891 24.8633C54.8906 24.6836 54.9727 24.418 55.0352 24.0664C55.1055 23.7148 55.1406 23.2383 55.1406 22.6367V20.8672C54.875 21.1953 54.6289 21.5117 54.4023 21.8164C54.1836 22.1289 53.9922 22.4297 53.8281 22.7188C53.6641 23.0156 53.5352 23.3008 53.4414 23.5742C53.3477 23.8477 53.3008 24.1133 53.3008 24.3711C53.3008 24.6133 53.3672 24.8242 53.5 25.0039C53.6328 25.1914 53.8203 25.2852 54.0625 25.2852ZM72.918 15.3242C72.7539 15.6445 72.5625 15.9492 72.3438 16.2383C72.1328 16.5195 71.9102 16.7812 71.6758 17.0234C71.4414 17.2578 71.207 17.4766 70.9727 17.6797C70.7383 17.875 70.5234 18.0469 70.3281 18.1953V19.543C70.3281 20.5664 70.2461 21.4766 70.082 22.2734C69.9258 23.0703 69.6953 23.7461 69.3906 24.3008C69.0938 24.8555 68.7344 25.2773 68.3125 25.5664C67.8984 25.8555 67.4336 26 66.918 26C66.6367 26 66.3789 25.9414 66.1445 25.8242C65.9102 25.7148 65.707 25.5625 65.5352 25.3672C65.3711 25.1719 65.2422 24.9414 65.1484 24.6758C65.0547 24.418 65.0078 24.1406 65.0078 23.8438C65.0078 23.2734 65.1016 22.7461 65.2891 22.2617C65.4844 21.7852 65.7461 21.332 66.0742 20.9023C66.4023 20.4805 66.7812 20.0781 67.2109 19.6953C67.6406 19.3047 68.0977 18.918 68.582 18.5352C68.5898 18.1055 68.6016 17.6797 68.6172 17.2578C68.6406 16.8359 68.6602 16.4375 68.6758 16.0625C68.6992 15.6875 68.7188 15.3477 68.7344 15.043C68.7578 14.7383 68.7773 14.4883 68.793 14.293C68.5273 14.832 68.2266 15.3633 67.8906 15.8867C67.5625 16.4023 67.2109 16.8945 66.8359 17.3633C66.4609 17.832 66.0664 18.2656 65.6523 18.6641C65.2461 19.0547 64.8359 19.3945 64.4219 19.6836C64.0078 19.9727 63.5938 20.1953 63.1797 20.3516C62.7734 20.5156 62.3828 20.5977 62.0078 20.5977C61.5859 20.5977 61.1836 20.5117 60.8008 20.3398C60.4258 20.1758 60.0938 19.9141 59.8047 19.5547C59.5234 19.1953 59.3008 18.7344 59.1367 18.1719C58.9648 17.6094 58.8789 16.9375 58.8789 16.1562C58.8789 15.2812 58.9766 14.3828 59.1719 13.4609C59.3672 12.5391 59.6367 11.625 59.9805 10.7188C60.3242 9.8125 60.7344 8.92578 61.2109 8.05859C61.6875 7.19141 62.207 6.375 62.7695 5.60938C63.332 4.83594 63.9297 4.12891 64.5625 3.48828C65.1953 2.83984 65.8398 2.28125 66.4961 1.8125C67.1523 1.34375 67.8086 0.980469 68.4648 0.722656C69.1289 0.457031 69.7734 0.324219 70.3984 0.324219C71.0547 0.324219 71.5781 0.492187 71.9688 0.828125C72.3672 1.15625 72.5664 1.625 72.5664 2.23438C72.5664 2.5625 72.4961 2.88281 72.3555 3.19531C72.2227 3.5 72.0391 3.79688 71.8047 4.08594C71.5781 4.36719 71.3203 4.63672 71.0312 4.89453C70.7422 5.14453 70.4453 5.375 70.1406 5.58594C69.8438 5.79688 69.5469 5.98438 69.25 6.14844C68.9609 6.3125 68.7031 6.44922 68.4766 6.55859L68.125 6.07812C68.4219 5.92969 68.7461 5.71875 69.0977 5.44531C69.4492 5.17188 69.7773 4.86328 70.082 4.51953C70.3867 4.17578 70.6406 3.80469 70.8438 3.40625C71.0469 3.00781 71.1484 2.60938 71.1484 2.21094C71.1484 1.875 71.0586 1.59766 70.8789 1.37891C70.707 1.15234 70.4297 1.03906 70.0469 1.03906C69.4531 1.03906 68.8164 1.22266 68.1367 1.58984C67.4648 1.95703 66.793 2.46875 66.1211 3.125C65.457 3.78125 64.8203 4.56641 64.2109 5.48047C63.6016 6.38672 63.0625 7.38281 62.5938 8.46875C62.125 9.55469 61.75 10.707 61.4688 11.9258C61.1875 13.1445 61.0469 14.3945 61.0469 15.6758C61.0469 16.2383 61.0859 16.7422 61.1641 17.1875C61.25 17.6328 61.3672 18.0117 61.5156 18.3242C61.6719 18.6289 61.8594 18.8672 62.0781 19.0391C62.3047 19.2031 62.5586 19.2852 62.8398 19.2852C63.1836 19.2852 63.5586 19.1797 63.9648 18.9688C64.3711 18.7578 64.7773 18.4727 65.1836 18.1133C65.5977 17.7539 66.0039 17.3398 66.4023 16.8711C66.8008 16.3945 67.168 15.8945 67.5039 15.3711C67.8398 14.8477 68.1328 14.3164 68.3828 13.7773C68.6328 13.2383 68.8164 12.7266 68.9336 12.2422C68.9805 11.6719 69.0273 11.1523 69.0742 10.6836C69.1211 10.207 69.1641 9.78906 69.2031 9.42969C69.25 9.07031 69.293 8.78125 69.332 8.5625C69.3711 8.33594 69.4062 8.1875 69.4375 8.11719C69.5 8 69.5898 7.88281 69.707 7.76562C69.8242 7.64844 69.9492 7.54688 70.082 7.46094C70.2227 7.36719 70.3594 7.29297 70.4922 7.23828C70.625 7.18359 70.7383 7.15625 70.832 7.15625C70.957 7.15625 71.0391 7.20703 71.0781 7.30859C71.125 7.41016 71.1484 7.51953 71.1484 7.63672C71.1484 7.98047 71.0898 8.4375 70.9727 9.00781C70.8555 9.57812 70.707 10.2422 70.5273 11C70.4492 11.3281 70.3906 11.7617 70.3516 12.3008C70.3203 12.832 70.2969 13.4023 70.2812 14.0117C70.2734 14.6133 70.2695 15.2227 70.2695 15.8398C70.2695 16.4492 70.2656 16.9961 70.2578 17.4805C70.8359 17.0586 71.2969 16.625 71.6406 16.1797C71.9922 15.7266 72.2578 15.3203 72.4375 14.9609L72.5664 14.7148L73.0469 15.0781L72.918 15.3242ZM68.5586 19.4023C68.1914 19.6914 67.8555 19.9961 67.5508 20.3164C67.2461 20.6367 66.9844 20.9805 66.7656 21.3477C66.5547 21.7148 66.3867 22.1133 66.2617 22.543C66.1445 22.9805 66.0859 23.4531 66.0859 23.9609C66.0859 24.4453 66.1641 24.8047 66.3203 25.0391C66.4766 25.2812 66.6758 25.4023 66.918 25.4023C67.1602 25.4023 67.3789 25.2969 67.5742 25.0859C67.7773 24.8828 67.9492 24.543 68.0898 24.0664C68.2383 23.5977 68.3516 22.9805 68.4297 22.2148C68.5156 21.4492 68.5586 20.5117 68.5586 19.4023ZM82.3984 15.0781L82.2695 15.3242C82.0039 15.8555 81.6484 16.2812 81.2031 16.6016C80.7656 16.9141 80.2891 17.1172 79.7734 17.2109C79.6328 17.6094 79.4492 17.9805 79.2227 18.3242C79.0039 18.6602 78.75 18.9531 78.4609 19.2031C78.1797 19.4531 77.8594 19.6484 77.5 19.7891C77.1484 19.9297 76.7656 20 76.3516 20C75.75 20 75.207 19.875 74.7227 19.625C74.2461 19.3672 73.8398 19.0234 73.5039 18.5938C73.168 18.1562 72.9102 17.6484 72.7305 17.0703C72.5508 16.4844 72.4609 15.8594 72.4609 15.1953C72.4609 14.6172 72.5273 14.0938 72.6602 13.625C72.793 13.1484 72.9609 12.7266 73.1641 12.3594C73.3672 11.9844 73.5938 11.6602 73.8438 11.3867C74.0938 11.1055 74.3398 10.875 74.582 10.6953C74.8242 10.5156 75.043 10.3828 75.2383 10.2969C75.4414 10.2031 75.5938 10.1562 75.6953 10.1562L75.8477 10.5664C75.5273 10.8008 75.2422 11.1289 74.9922 11.5508C74.7734 11.9102 74.5742 12.3867 74.3945 12.9805C74.2227 13.5742 74.1367 14.3125 74.1367 15.1953C74.1367 15.7344 74.1875 16.2578 74.2891 16.7656C74.3906 17.2734 74.5391 17.7227 74.7344 18.1133C74.9297 18.5039 75.168 18.8164 75.4492 19.0508C75.7383 19.2852 76.0625 19.4023 76.4219 19.4023C76.9141 19.4023 77.3203 19.207 77.6406 18.8164C77.9688 18.418 78.2109 17.875 78.3672 17.1875C77.9609 17.1016 77.5742 16.9414 77.207 16.707C76.8398 16.4727 76.5156 16.1836 76.2344 15.8398C75.9531 15.4883 75.7266 15.0859 75.5547 14.6328C75.3906 14.1797 75.3086 13.6875 75.3086 13.1562C75.3086 12.7188 75.3633 12.3359 75.4727 12.0078C75.5898 11.6719 75.7422 11.3945 75.9297 11.1758C76.1172 10.9492 76.332 10.7812 76.5742 10.6719C76.8242 10.5547 77.0859 10.4961 77.3594 10.4961C77.6797 10.4961 78.0078 10.5898 78.3438 10.7773C78.6797 10.957 78.9844 11.2305 79.2578 11.5977C79.5312 11.957 79.7539 12.4102 79.9258 12.957C80.0977 13.5039 80.1836 14.1406 80.1836 14.8672C80.1836 15.1406 80.168 15.4102 80.1367 15.6758C80.1055 15.9414 80.0586 16.1992 79.9961 16.4492C80.3711 16.3398 80.7109 16.1641 81.0156 15.9219C81.3281 15.6797 81.5859 15.3594 81.7891 14.9609L81.918 14.7148L82.3984 15.0781ZM76.082 13.0625C76.082 13.5234 76.1445 13.9492 76.2695 14.3398C76.4023 14.7227 76.5781 15.0625 76.7969 15.3594C77.0156 15.6484 77.2695 15.8906 77.5586 16.0859C77.8477 16.2812 78.1562 16.418 78.4844 16.4961C78.5234 16.2773 78.5469 16.0508 78.5547 15.8164C78.5703 15.5742 78.5781 15.3281 78.5781 15.0781C78.5781 14.5234 78.5352 14.0234 78.4492 13.5781C78.3633 13.125 78.25 12.7422 78.1094 12.4297C77.9688 12.1094 77.8047 11.8633 77.6172 11.6914C77.4297 11.5195 77.2383 11.4336 77.043 11.4336C76.7773 11.4336 76.5508 11.5781 76.3633 11.8672C76.1758 12.1484 76.082 12.5469 76.082 13.0625Z" fill="#11291B"/>
</svg>
