<svg width="182" height="30" viewBox="0 0 182 30" fill="none" xmlns="http://www.w3.org/2000/svg">
<path d="M16.7826 4.53993C16.7826 5.33825 16.6256 6.09172 16.3116 6.80035C15.9977 7.5 15.5985 8.14583 15.1142 8.73785C14.6387 9.32986 14.114 9.86805 13.5399 10.3524C12.9748 10.8278 12.4366 11.2405 11.9253 11.5903C12.6429 11.6531 13.356 11.828 14.0647 12.115C14.7823 12.3931 15.4236 12.7833 15.9887 13.2856C16.5628 13.7789 17.0247 14.3799 17.3746 15.0885C17.7334 15.7882 17.9128 16.5865 17.9128 17.4835C17.9128 18.219 17.8051 18.8828 17.5898 19.4748C17.3835 20.0579 17.1055 20.5826 16.7556 21.049C16.4058 21.5065 16.0067 21.9012 15.5582 22.2331C15.1186 22.565 14.6701 22.8385 14.2127 23.0538C13.7552 23.2691 13.3022 23.4261 12.8537 23.5247C12.4142 23.6324 12.024 23.6862 11.6832 23.6862C10.822 23.6862 10.1045 23.583 9.53038 23.3767C8.96528 23.1704 8.5123 22.9193 8.17144 22.6233C7.83955 22.3183 7.60634 21.9999 7.47179 21.668C7.33724 21.3361 7.26997 21.0446 7.26997 20.7934C7.26997 20.4077 7.35069 20.0399 7.51215 19.6901C7.68258 19.3313 7.90683 19.0084 8.1849 18.7214C8.46296 18.4343 8.78588 18.1832 9.15365 17.9679C9.52141 17.7436 9.90263 17.5732 10.2973 17.4566L10.5799 17.9006C10.0148 18.2056 9.59766 18.6003 9.32856 19.0846C9.05946 19.56 8.92491 20.0399 8.92491 20.5243C8.92491 20.7934 8.97873 21.076 9.08637 21.372C9.20298 21.659 9.37341 21.9236 9.59766 22.1658C9.83087 22.408 10.1179 22.6098 10.4588 22.7713C10.8086 22.9238 11.2167 23 11.6832 23C12.3649 23 13.0017 22.8744 13.5938 22.6233C14.1858 22.3631 14.697 22.0088 15.1276 21.5603C15.5671 21.1029 15.908 20.5692 16.1502 19.9592C16.4013 19.3492 16.5269 18.69 16.5269 17.9813C16.5269 17.2548 16.3744 16.6134 16.0694 16.0573C15.7734 15.5012 15.3743 15.0347 14.872 14.658C14.3786 14.2723 13.8045 13.9808 13.1497 13.7834C12.5039 13.5861 11.8312 13.4874 11.1315 13.4874C10.8445 13.4874 10.5619 13.5054 10.2839 13.5412C10.0058 13.5681 9.74118 13.6085 9.49002 13.6623C9.24783 13.7072 9.02807 13.752 8.83073 13.7969C8.63339 13.8417 8.4809 13.8776 8.37326 13.9045L8.23872 13.77L9.47656 11.8459C9.57523 11.819 9.68736 11.7876 9.81293 11.7517C9.92057 11.7248 10.0506 11.6979 10.2031 11.671C10.3556 11.6351 10.526 11.6082 10.7144 11.5903C11.145 11.3301 11.5935 11.0027 12.0599 10.6081C12.5353 10.2044 12.9659 9.74248 13.3516 9.22222C13.7462 8.693 14.0692 8.10098 14.3203 7.44618C14.5804 6.79138 14.7105 6.07827 14.7105 5.30686C14.7105 4.00622 14.401 3.02401 13.7821 2.36024C13.1632 1.69647 12.2797 1.36458 11.1315 1.36458C10.4677 1.36458 9.79948 1.5081 9.12674 1.79514C8.45399 2.0732 7.80368 2.50376 7.17578 3.0868C6.55686 3.66985 5.97381 4.40538 5.42665 5.2934C4.88846 6.18142 4.41753 7.22642 4.01389 8.42838C3.61921 9.63035 3.30527 10.9983 3.07205 12.5321C2.83883 14.066 2.72222 15.7658 2.72222 17.6315C2.72222 18.4029 2.75362 19.116 2.81641 19.7708C2.88817 20.4256 2.99132 20.9952 3.12587 21.4796C3.26939 21.955 3.4443 22.3273 3.65061 22.5964C3.85692 22.8655 4.0991 23 4.37717 23C4.65524 23 4.875 22.7982 5.03646 22.3945C5.20689 21.9819 5.33247 21.4482 5.41319 20.7934C5.50289 20.1296 5.55671 19.3896 5.57465 18.5734C5.60156 17.7571 5.61502 16.9363 5.61502 16.1111C5.61502 14.8553 5.59708 13.6758 5.5612 12.5725C5.52532 11.4602 5.48495 10.469 5.4401 9.59896C5.40422 8.72888 5.36835 8.00231 5.33247 7.41927C5.29659 6.83623 5.27416 6.44603 5.26519 6.2487L6.82596 5.77778C6.8708 5.84954 6.93359 6.06481 7.01432 6.42361C7.09505 6.78241 7.17578 7.25781 7.25651 7.84983C7.33724 8.43287 7.40451 9.11458 7.45833 9.89496C7.52112 10.6664 7.55252 11.5006 7.55252 12.3976C7.55252 13.9135 7.50767 15.2455 7.41797 16.3937C7.33724 17.5328 7.22063 18.524 7.06814 19.3672C6.91565 20.2014 6.73626 20.8966 6.52995 21.4527C6.33261 22.0088 6.11285 22.4528 5.87066 22.7847C5.63744 23.1076 5.39077 23.3364 5.13064 23.4709C4.87949 23.6144 4.62833 23.6862 4.37717 23.6862C3.83001 23.6862 3.33666 23.4978 2.89714 23.1211C2.46658 22.7533 2.09881 22.2645 1.79384 21.6545C1.48886 21.0356 1.25564 20.3315 1.09418 19.5421C0.932726 18.7438 0.851997 17.923 0.851997 17.0799C0.851997 15.8689 0.96412 14.6176 1.18837 13.326C1.41262 12.0343 1.7445 10.774 2.18403 9.54514C2.62355 8.30729 3.16623 7.13672 3.81207 6.03342C4.4579 4.92115 5.2024 3.9524 6.04557 3.12717C6.88874 2.29297 7.8261 1.63368 8.85764 1.1493C9.89815 0.655959 11.0239 0.409287 12.2348 0.409287C12.9255 0.409287 13.5489 0.503471 14.105 0.691839C14.6701 0.871237 15.15 1.14033 15.5447 1.49913C15.9394 1.84896 16.2444 2.27951 16.4596 2.7908C16.6749 3.30208 16.7826 3.88513 16.7826 4.53993ZM23.8329 21.4796C24.1468 21.4796 24.4653 21.3989 24.7882 21.2374C25.1201 21.076 25.452 20.8248 25.7839 20.4839C26.1247 20.1431 26.4745 19.7036 26.8333 19.1654C27.1921 18.6182 27.5599 17.9679 27.9366 17.2144L28.0712 16.9319L28.6228 17.349L28.4883 17.6315C28.0039 18.5913 27.5195 19.412 27.0352 20.0937C26.5598 20.7755 26.0888 21.3316 25.6224 21.7622C25.1649 22.1927 24.712 22.5067 24.2635 22.704C23.815 22.9013 23.3844 23 22.9718 23C22.3887 23 21.8685 22.8789 21.411 22.6367C20.9536 22.3945 20.5679 22.0671 20.2539 21.6545C19.94 21.2329 19.7023 20.7486 19.5408 20.2014C19.3704 19.6453 19.2852 19.0622 19.2852 18.4523C19.2852 17.4835 19.4197 16.6045 19.6888 15.8151C19.9489 15.0168 20.2988 14.3351 20.7383 13.77C21.1868 13.2049 21.6936 12.7653 22.2587 12.4514C22.8238 12.1374 23.4113 11.9805 24.0213 11.9805C24.6402 11.9805 25.1111 12.1374 25.434 12.4514C25.7659 12.7653 25.9319 13.16 25.9319 13.6354C25.9319 14.0929 25.8018 14.5234 25.5417 14.9271C25.2815 15.3218 24.9272 15.7119 24.4787 16.0977C24.0392 16.4744 23.5279 16.8511 22.9449 17.2279C22.3618 17.5956 21.7474 17.9769 21.1016 18.3715C21.1644 18.838 21.272 19.264 21.4245 19.6497C21.577 20.0265 21.7698 20.3539 22.003 20.6319C22.2363 20.901 22.5054 21.1118 22.8103 21.2643C23.1153 21.4078 23.4562 21.4796 23.8329 21.4796ZM24.25 14.0391C24.25 13.6803 24.1513 13.3977 23.954 13.1914C23.7656 12.9851 23.5324 12.8819 23.2543 12.8819C23.0211 12.8819 22.7745 12.9672 22.5143 13.1376C22.2542 13.299 22.0165 13.5637 21.8012 13.9314C21.5859 14.2902 21.4065 14.7522 21.263 15.3173C21.1195 15.8824 21.0477 16.5686 21.0477 17.3759V17.6853C21.3527 17.5239 21.6891 17.3131 22.0569 17.053C22.4336 16.7839 22.7834 16.4878 23.1063 16.1649C23.4293 15.842 23.6984 15.5012 23.9136 15.1424C24.1379 14.7746 24.25 14.4068 24.25 14.0391ZM36.2248 19.6632C36.2248 20.1745 36.2697 20.605 36.3594 20.9549C36.4491 21.3047 36.606 21.4796 36.8303 21.4796C36.9648 21.4796 37.1084 21.4168 37.2609 21.2912C37.4223 21.1567 37.6062 20.9414 37.8125 20.6454C38.0188 20.3494 38.252 19.9682 38.5122 19.5017C38.7813 19.0263 39.0862 18.4478 39.4271 17.7661L39.8307 16.9319L40.3824 17.349L39.9787 18.1832C39.602 18.9366 39.2477 19.6139 38.9158 20.2148C38.5929 20.8069 38.2834 21.3092 37.9874 21.7218C37.6914 22.1344 37.3999 22.4528 37.1128 22.6771C36.8348 22.8924 36.5567 23 36.2786 23C35.9826 23 35.7315 22.9193 35.5252 22.7578C35.3278 22.5964 35.1619 22.3766 35.0273 22.0985C34.8928 21.8115 34.7896 21.4841 34.7179 21.1163C34.6461 20.7396 34.5968 20.3404 34.5699 19.9188C34.3546 20.3494 34.1169 20.753 33.8568 21.1298C33.5966 21.4975 33.3231 21.8205 33.036 22.0985C32.758 22.3766 32.4664 22.5964 32.1615 22.7578C31.8565 22.9193 31.5515 23 31.2465 23C30.798 23 30.363 22.9058 29.9414 22.7174C29.5198 22.5291 29.1431 22.242 28.8112 21.8563C28.4883 21.4706 28.2282 20.9863 28.0308 20.4032C27.8335 19.8112 27.7348 19.116 27.7348 18.3177C27.7348 17.3848 27.8559 16.5327 28.0981 15.7613C28.3403 14.9809 28.6677 14.3126 29.0803 13.7565C29.4929 13.1914 29.9683 12.7564 30.5065 12.4514C31.0447 12.1374 31.6098 11.9805 32.2018 11.9805C32.5606 11.9805 32.8925 12.0612 33.1975 12.2227C33.5025 12.3841 33.7671 12.5815 33.9913 12.8147C34.2245 13.0389 34.4174 13.2811 34.5699 13.5412C34.7224 13.7924 34.8255 14.0077 34.8793 14.1871L35.0408 12.8819C35.0587 12.7115 35.1395 12.568 35.283 12.4514C35.4355 12.3348 35.6014 12.2451 35.7808 12.1823C35.9602 12.1105 36.1351 12.0612 36.3056 12.0343C36.476 11.9984 36.5971 11.9805 36.6688 11.9805C36.7765 11.9805 36.8482 11.9984 36.8841 12.0343C36.92 12.0702 36.9379 12.1419 36.9379 12.2496C36.9379 12.3841 36.8976 12.6577 36.8168 13.0703C36.7451 13.474 36.6644 13.9942 36.5747 14.6311C36.4939 15.259 36.4132 15.999 36.3325 16.8511C36.2607 17.7033 36.2248 18.6406 36.2248 19.6632ZM34.7448 16.1111C34.7448 15.6985 34.682 15.2948 34.5564 14.9002C34.4308 14.4965 34.2604 14.1422 34.0451 13.8372C33.8299 13.5233 33.5787 13.2721 33.2917 13.0838C33.0136 12.8954 32.7176 12.8012 32.4036 12.8012C32.0179 12.8012 31.6547 12.9133 31.3138 13.1376C30.9819 13.3529 30.6904 13.6623 30.4392 14.066C30.1971 14.4606 30.0042 14.9405 29.8607 15.5056C29.7172 16.0618 29.6454 16.6762 29.6454 17.349C29.6454 18.6944 29.8562 19.7215 30.2778 20.4301C30.6994 21.1298 31.26 21.4796 31.9596 21.4796C32.2646 21.4796 32.5786 21.3585 32.9015 21.1163C33.2334 20.8652 33.5339 20.5109 33.803 20.0534C34.081 19.587 34.3053 19.0218 34.4757 18.3581C34.6551 17.6943 34.7448 16.9453 34.7448 16.1111ZM45.3472 20.0803C45.3024 20.1521 45.2351 20.2776 45.1454 20.457C45.0647 20.6275 44.957 20.8203 44.8225 21.0356C44.6969 21.2509 44.5444 21.4751 44.365 21.7083C44.1946 21.9416 43.9973 22.1523 43.773 22.3407C43.5488 22.5291 43.2976 22.6861 43.0195 22.8116C42.7504 22.9372 42.4499 23 42.1181 23C41.8579 23 41.5888 22.9462 41.3108 22.8385C41.0327 22.7309 40.7726 22.5336 40.5304 22.2465C40.2972 21.9595 40.1043 21.5693 39.9518 21.076C39.7993 20.5736 39.7231 19.9278 39.7231 19.1385C39.7231 18.385 39.75 17.6315 39.8038 16.878C39.8576 16.1156 39.9204 15.4204 39.9922 14.7925C40.0729 14.1646 40.1492 13.6399 40.2209 13.2183C40.2927 12.7967 40.3465 12.5411 40.3824 12.4514C40.4183 12.3707 40.49 12.2989 40.5977 12.2361C40.7053 12.1733 40.8264 12.124 40.9609 12.0881C41.1045 12.0522 41.248 12.0253 41.3915 12.0074C41.544 11.9894 41.674 11.9805 41.7817 11.9805C41.9252 11.9805 42.0373 12.0163 42.1181 12.0881C42.2078 12.1599 42.2526 12.281 42.2526 12.4514C42.2526 12.5321 42.2347 12.6936 42.1988 12.9358C42.1719 13.169 42.136 13.456 42.0911 13.7969C42.0463 14.1377 41.997 14.5145 41.9431 14.9271C41.8983 15.3397 41.8534 15.7613 41.8086 16.1918C41.7637 16.6134 41.7234 17.035 41.6875 17.4566C41.6606 17.8692 41.6471 18.2459 41.6471 18.5868C41.6471 19.5645 41.7503 20.2911 41.9566 20.7665C42.1719 21.2419 42.5217 21.4796 43.0061 21.4796C43.4187 21.4796 43.8358 21.1791 44.2574 20.5781C44.6879 19.9771 45.0602 19.1026 45.3741 17.9544C45.419 17.4701 45.4593 16.9543 45.4952 16.4071C45.5401 15.851 45.5804 15.3262 45.6163 14.8329C45.6522 14.3306 45.6836 13.8821 45.7105 13.4874C45.7464 13.0927 45.7778 12.8102 45.8047 12.6398C45.8316 12.5142 45.9034 12.411 46.02 12.3303C46.1366 12.2406 46.2666 12.1733 46.4102 12.1285C46.5626 12.0747 46.7062 12.0388 46.8407 12.0208C46.9842 11.9939 47.0919 11.9805 47.1636 11.9805C47.3161 11.9805 47.4193 12.0163 47.4731 12.0881C47.5359 12.1509 47.5673 12.2541 47.5673 12.3976C47.5673 12.5231 47.5538 12.7653 47.5269 13.1241C47.509 13.474 47.4821 13.8866 47.4462 14.362C47.4193 14.8284 47.3879 15.3307 47.352 15.8689C47.3161 16.4071 47.2802 16.9274 47.2444 17.4297C47.2174 17.923 47.1905 18.3715 47.1636 18.7752C47.1457 19.1788 47.1367 19.4838 47.1367 19.6901C47.1367 20.3001 47.1681 20.7799 47.2309 21.1298C47.3027 21.4796 47.4552 21.6545 47.6884 21.6545C47.8588 21.6545 48.0427 21.5469 48.24 21.3316C48.4463 21.1073 48.6661 20.7979 48.8993 20.4032C49.1415 20.0085 49.4016 19.5421 49.6797 19.0039C49.9578 18.4567 50.2582 17.8602 50.5812 17.2144L50.7157 16.9319L51.2674 17.349L51.1328 17.6315C50.7023 18.4837 50.321 19.2461 49.9892 19.9188C49.6662 20.5826 49.3568 21.1432 49.0608 21.6007C48.7648 22.0582 48.4643 22.408 48.1593 22.6502C47.8543 22.8834 47.5135 23 47.1367 23C46.7869 23 46.4954 22.9327 46.2622 22.7982C46.0379 22.6636 45.8585 22.4708 45.724 22.2196C45.5894 21.9685 45.4907 21.6635 45.428 21.3047C45.3741 20.9459 45.3472 20.5378 45.3472 20.0803ZM50.6754 18.5868C50.6754 17.636 50.7112 16.6807 50.783 15.7209C50.8548 14.7611 50.9489 13.7879 51.0655 12.8012H49.8412L49.9892 11.9805H51.1732C51.2988 11.0655 51.4243 10.1506 51.5499 9.23568C51.6845 8.31178 51.8056 7.38788 51.9132 6.46397H53.2856C53.2677 6.66131 53.2407 6.94835 53.2049 7.32509C53.178 7.69285 53.1421 8.12341 53.0972 8.61675C53.0613 9.10113 53.0255 9.63484 52.9896 10.2179C52.9537 10.792 52.9178 11.3795 52.8819 11.9805H55.4922L55.3576 12.8012H52.8281C52.7923 13.3125 52.7609 13.8148 52.7339 14.3082C52.707 14.8015 52.6801 15.2724 52.6532 15.7209C52.6353 16.1604 52.6218 16.5686 52.6129 16.9453C52.6039 17.3131 52.5994 17.6315 52.5994 17.9006C52.5994 18.5823 52.6173 19.1519 52.6532 19.6094C52.6981 20.0668 52.7609 20.4346 52.8416 20.7127C52.9313 20.9907 53.0389 21.1881 53.1645 21.3047C53.2991 21.4213 53.4515 21.4796 53.622 21.4796C53.8462 21.4796 54.0929 21.3675 54.362 21.1432C54.6401 20.91 54.9271 20.6005 55.2231 20.2148C55.5191 19.8291 55.8196 19.3806 56.1246 18.8694C56.4295 18.3491 56.7256 17.7975 57.0126 17.2144L57.1471 16.9319L57.6988 17.349L57.5642 17.6315C57.1516 18.4657 56.739 19.2147 56.3264 19.8785C55.9227 20.5422 55.5236 21.1073 55.1289 21.5738C54.7342 22.0312 54.3485 22.3856 53.9718 22.6367C53.5951 22.8789 53.2318 23 52.8819 23C52.5321 23 52.2182 22.9193 51.9401 22.7578C51.671 22.5964 51.4423 22.3407 51.2539 21.9909C51.0655 21.6321 50.922 21.1746 50.8234 20.6185C50.7247 20.0624 50.6754 19.3851 50.6754 18.5868ZM58.0083 12.3572C58.0441 12.2675 58.1293 12.1957 58.2639 12.1419C58.3984 12.0881 58.542 12.0522 58.6944 12.0343C58.8469 12.0074 58.9905 11.9939 59.125 11.9939C59.2596 11.985 59.3493 11.9805 59.3941 11.9805C59.5287 11.9805 59.6139 12.0163 59.6497 12.0881C59.6946 12.1509 59.717 12.2541 59.717 12.3976C59.717 12.4693 59.6946 12.6308 59.6497 12.8819C59.6049 13.1241 59.5466 13.4291 59.4748 13.7969C59.412 14.1646 59.3403 14.5817 59.2596 15.0482C59.1878 15.5146 59.116 15.9945 59.0443 16.4878C58.9815 16.9812 58.9277 17.4835 58.8828 17.9948C58.838 18.4971 58.8155 18.9725 58.8155 19.421C58.8155 20.2014 58.9456 20.7889 59.2057 21.1836C59.4659 21.5693 59.7664 21.7622 60.1072 21.7622C60.6992 21.7622 61.224 21.3271 61.6814 20.457C62.1389 19.587 62.6143 18.3132 63.1076 16.6359V12.7205C63.1076 12.568 63.1749 12.4469 63.3095 12.3572C63.453 12.2585 63.6144 12.1823 63.7938 12.1285C63.9732 12.0747 64.1482 12.0388 64.3186 12.0208C64.489 11.9939 64.6101 11.9805 64.6819 11.9805C64.9599 11.9805 65.099 12.1195 65.099 12.3976C65.099 12.4962 65.09 12.6622 65.0721 12.8954C65.0631 13.1196 65.0496 13.3887 65.0317 13.7027C65.0137 14.0077 64.9958 14.3485 64.9779 14.7253C64.9689 15.093 64.9644 15.4653 64.9644 15.842V21.3181C65.1259 21.1118 65.3277 20.8383 65.5699 20.4974C65.821 20.1565 66.0767 19.7933 66.3368 19.4076C66.6059 19.0218 66.8616 18.6361 67.1037 18.2504C67.3549 17.8647 67.5567 17.5194 67.7092 17.2144L67.8572 16.9319L68.4089 17.349L68.2609 17.6315C68.0725 18.0082 67.8482 18.3984 67.5881 18.8021C67.328 19.2057 67.0499 19.6139 66.7539 20.0265C66.4669 20.4301 66.1664 20.8338 65.8524 21.2374C65.5475 21.6321 65.2515 22.0088 64.9644 22.3676V25.3411C64.9644 26.1664 64.8882 26.866 64.7357 27.4401C64.5922 28.0231 64.3903 28.4941 64.1302 28.8529C63.8701 29.2206 63.5651 29.4852 63.2153 29.6467C62.8655 29.8082 62.4842 29.8889 62.0716 29.8889C61.8115 29.8889 61.5693 29.8485 61.3451 29.7678C61.1298 29.6871 60.9414 29.566 60.78 29.4045C60.6185 29.252 60.4929 29.0637 60.4032 28.8394C60.3135 28.6241 60.2687 28.3775 60.2687 28.0994C60.2687 27.6957 60.3404 27.2921 60.4839 26.8885C60.6364 26.4848 60.8427 26.0677 61.1029 25.6372C61.372 25.2066 61.6814 24.7626 62.0313 24.3051C62.3811 23.8566 62.7578 23.3857 63.1615 22.8924V18.8155C62.9372 19.4255 62.695 19.9906 62.4349 20.5109C62.1748 21.0221 61.8922 21.4617 61.5872 21.8294C61.2823 22.1972 60.9549 22.4842 60.605 22.6905C60.2552 22.8968 59.8785 23 59.4748 23C59.1878 23 58.8918 22.9552 58.5868 22.8655C58.2908 22.7668 58.0127 22.5919 57.7526 22.3407C57.5015 22.0896 57.2951 21.7532 57.1337 21.3316C56.9722 20.901 56.8915 20.3539 56.8915 19.6901C56.8915 18.9366 56.9363 18.1697 57.026 17.3893C57.1157 16.6089 57.2189 15.8824 57.3355 15.2096C57.4611 14.5369 57.5867 13.9494 57.7122 13.447C57.8378 12.9358 57.9365 12.5725 58.0083 12.3572ZM61.9236 29.0681C62.0671 29.0681 62.2107 29.0367 62.3542 28.974C62.5067 28.9201 62.6412 28.7901 62.7578 28.5838C62.8744 28.3775 62.9686 28.0725 63.0404 27.6688C63.1211 27.2652 63.1615 26.718 63.1615 26.0273V23.9957C62.8565 24.3724 62.5739 24.7357 62.3138 25.0855C62.0626 25.4443 61.8429 25.7896 61.6545 26.1215C61.4662 26.4624 61.3181 26.7898 61.2105 27.1037C61.1029 27.4177 61.0491 27.7227 61.0491 28.0187C61.0491 28.2967 61.1253 28.5389 61.2778 28.7452C61.4303 28.9605 61.6455 29.0681 61.9236 29.0681ZM83.5725 17.6315C83.3841 17.9993 83.1644 18.3491 82.9132 18.681C82.671 19.0039 82.4154 19.3044 82.1463 19.5825C81.8772 19.8516 81.6081 20.1027 81.339 20.3359C81.0699 20.5602 80.8232 20.7575 80.599 20.928V22.4753C80.599 23.6503 80.5048 24.6953 80.3164 25.6102C80.137 26.5252 79.8724 27.3011 79.5226 27.9379C79.1817 28.5748 78.7691 29.0592 78.2847 29.3911C77.8093 29.7229 77.2756 29.8889 76.6836 29.8889C76.3607 29.8889 76.0647 29.8216 75.7956 29.6871C75.5265 29.5615 75.2933 29.3866 75.0959 29.1623C74.9076 28.9381 74.7596 28.6735 74.6519 28.3685C74.5443 28.0725 74.4905 27.7541 74.4905 27.4132C74.4905 26.7584 74.5981 26.1529 74.8134 25.5968C75.0376 25.0496 75.3381 24.5294 75.7149 24.036C76.0916 23.5516 76.5266 23.0897 77.02 22.6502C77.5133 22.2017 78.0381 21.7577 78.5942 21.3181C78.6032 20.8248 78.6166 20.3359 78.6346 19.8516C78.6615 19.3672 78.6839 18.9097 78.7018 18.4792C78.7287 18.0486 78.7512 17.6584 78.7691 17.3086C78.796 16.9588 78.8184 16.6717 78.8364 16.4475C78.5314 17.0664 78.1861 17.6764 77.8004 18.2773C77.4236 18.8694 77.02 19.4345 76.5894 19.9727C76.1589 20.5109 75.7059 21.0087 75.2305 21.4661C74.764 21.9146 74.2931 22.3048 73.8177 22.6367C73.3423 22.9686 72.8669 23.2242 72.3915 23.4036C71.9251 23.592 71.4766 23.6862 71.046 23.6862C70.5616 23.6862 70.0997 23.5875 69.6602 23.3902C69.2296 23.2018 68.8484 22.9013 68.5165 22.4887C68.1936 22.0761 67.9379 21.5469 67.7496 20.901C67.5522 20.2552 67.4536 19.4838 67.4536 18.5868C67.4536 17.5822 67.5657 16.5506 67.7899 15.4922C68.0142 14.4337 68.3236 13.3843 68.7183 12.3437C69.113 11.3032 69.5839 10.2852 70.1311 9.2895C70.6782 8.29384 71.2747 7.35648 71.9206 6.47743C72.5664 5.58941 73.2526 4.77763 73.9792 4.0421C74.7057 3.2976 75.4458 2.65625 76.1992 2.11805C76.9527 1.57986 77.7062 1.16276 78.4596 0.866752C79.2221 0.561775 79.9621 0.409287 80.6797 0.409287C81.4332 0.409287 82.0342 0.60214 82.4826 0.987846C82.9401 1.36458 83.1688 1.90278 83.1688 2.60243C83.1688 2.97917 83.0881 3.34693 82.9267 3.70573C82.7742 4.05555 82.5634 4.39641 82.2943 4.7283C82.0342 5.05121 81.7381 5.36068 81.4063 5.65668C81.0744 5.94372 80.7335 6.20833 80.3837 6.45052C80.0428 6.69271 79.702 6.90799 79.3611 7.09635C79.0292 7.28472 78.7332 7.44169 78.4731 7.56727L78.0695 7.01562C78.4103 6.8452 78.7826 6.60301 79.1862 6.28906C79.5899 5.97511 79.9666 5.6208 80.3164 5.22613C80.6662 4.83145 80.9578 4.40538 81.191 3.94792C81.4242 3.49045 81.5408 3.03298 81.5408 2.57552C81.5408 2.18981 81.4377 1.87138 81.2313 1.62022C81.034 1.3601 80.7156 1.23003 80.276 1.23003C79.5943 1.23003 78.8633 1.44083 78.0829 1.86241C77.3115 2.284 76.5401 2.87153 75.7687 3.625C75.0062 4.37847 74.2752 5.27995 73.5755 6.32943C72.8759 7.36994 72.257 8.5136 71.7188 9.76042C71.1806 11.0072 70.75 12.3303 70.4271 13.7296C70.1042 15.1289 69.9427 16.5641 69.9427 18.0352C69.9427 18.681 69.9876 19.2595 70.0773 19.7708C70.1759 20.2821 70.3105 20.7172 70.4809 21.076C70.6603 21.4258 70.8756 21.6994 71.1267 21.8967C71.3869 22.0851 71.6784 22.1793 72.0013 22.1793C72.396 22.1793 72.8265 22.0582 73.293 21.816C73.7594 21.5738 74.2258 21.2464 74.6923 20.8338C75.1677 20.4212 75.6341 19.9457 76.0916 19.4076C76.5491 18.8604 76.9706 18.2863 77.3563 17.6853C77.7421 17.0843 78.0784 16.4744 78.3655 15.8555C78.6525 15.2365 78.8633 14.649 78.9978 14.0929C79.0517 13.4381 79.1055 12.8416 79.1593 12.3034C79.2131 11.7562 79.2624 11.2763 79.3073 10.8637C79.3611 10.4511 79.4105 10.1192 79.4553 9.86805C79.5002 9.60793 79.5405 9.4375 79.5764 9.35677C79.6482 9.22222 79.7513 9.08767 79.8859 8.95312C80.0204 8.81858 80.1639 8.70197 80.3164 8.6033C80.4779 8.49566 80.6348 8.41044 80.7873 8.34766C80.9398 8.28487 81.0699 8.25347 81.1775 8.25347C81.321 8.25347 81.4152 8.31178 81.4601 8.42838C81.5139 8.54499 81.5408 8.67057 81.5408 8.80512C81.5408 9.1998 81.4735 9.72454 81.339 10.3793C81.2044 11.0341 81.034 11.7966 80.8277 12.6667C80.738 13.0434 80.6707 13.5412 80.6259 14.1602C80.59 14.7701 80.5631 15.4249 80.5451 16.1246C80.5362 16.8152 80.5317 17.5149 80.5317 18.2235C80.5317 18.9232 80.5272 19.5511 80.5182 20.1072C81.182 19.6228 81.7112 19.125 82.1059 18.6137C82.5096 18.0935 82.8145 17.627 83.0208 17.2144L83.1688 16.9319L83.7205 17.349L83.5725 17.6315ZM78.5673 22.3138C78.1457 22.6457 77.76 22.9955 77.4102 23.3633C77.0603 23.731 76.7598 24.1257 76.5087 24.5473C76.2665 24.9689 76.0736 25.4264 75.9301 25.9197C75.7956 26.422 75.7283 26.9647 75.7283 27.5477C75.7283 28.1039 75.818 28.5165 75.9974 28.7856C76.1768 29.0637 76.4055 29.2027 76.6836 29.2027C76.9617 29.2027 77.2128 29.0816 77.4371 28.8394C77.6703 28.6062 77.8676 28.216 78.0291 27.6688C78.1995 27.1306 78.3296 26.422 78.4193 25.543C78.5179 24.6639 78.5673 23.5875 78.5673 22.3138ZM94.4575 17.349L94.3095 17.6315C94.0045 18.2415 93.5964 18.7303 93.0851 19.0981C92.5828 19.4569 92.0356 19.6901 91.4436 19.7977C91.2821 20.2552 91.0713 20.6813 90.8112 21.076C90.56 21.4617 90.2685 21.798 89.9366 22.0851C89.6137 22.3721 89.246 22.5964 88.8333 22.7578C88.4297 22.9193 87.9902 23 87.5148 23C86.8241 23 86.2007 22.8565 85.6445 22.5694C85.0974 22.2734 84.6309 21.8788 84.2452 21.3854C83.8595 20.8831 83.5635 20.3001 83.3572 19.6363C83.1509 18.9635 83.0477 18.2459 83.0477 17.4835C83.0477 16.8197 83.124 16.2187 83.2765 15.6806C83.429 15.1334 83.6218 14.649 83.855 14.2274C84.0883 13.7969 84.3484 13.4246 84.6354 13.1107C84.9225 12.7878 85.205 12.5231 85.4831 12.3168C85.7611 12.1105 86.0123 11.958 86.2366 11.8594C86.4698 11.7517 86.6447 11.6979 86.7613 11.6979L86.9362 12.1688C86.5684 12.4379 86.241 12.8147 85.954 13.299C85.7028 13.7117 85.4741 14.2588 85.2678 14.9405C85.0705 15.6223 84.9718 16.4699 84.9718 17.4835C84.9718 18.1024 85.0301 18.7034 85.1467 19.2865C85.2633 19.8695 85.4337 20.3853 85.658 20.8338C85.8822 21.2823 86.1558 21.6411 86.4787 21.9102C86.8106 22.1793 87.1829 22.3138 87.5955 22.3138C88.1606 22.3138 88.627 22.0896 88.9948 21.6411C89.3715 21.1836 89.6496 20.5602 89.829 19.7708C89.3626 19.6722 88.9186 19.4883 88.497 19.2192C88.0754 18.9501 87.7031 18.6182 87.3802 18.2235C87.0573 17.8199 86.7972 17.3579 86.5998 16.8377C86.4115 16.3174 86.3173 15.7523 86.3173 15.1424C86.3173 14.64 86.3801 14.2005 86.5056 13.8238C86.6402 13.4381 86.8151 13.1196 87.0304 12.8685C87.2457 12.6084 87.4923 12.4155 87.7704 12.2899C88.0574 12.1554 88.3579 12.0881 88.6719 12.0881C89.0396 12.0881 89.4164 12.1957 89.8021 12.411C90.1878 12.6173 90.5376 12.9313 90.8516 13.3529C91.1655 13.7655 91.4212 14.2857 91.6185 14.9136C91.8158 15.5415 91.9145 16.2726 91.9145 17.1068C91.9145 17.4207 91.8966 17.7302 91.8607 18.0352C91.8248 18.3401 91.771 18.6361 91.6992 18.9232C92.1298 18.7976 92.52 18.5958 92.8698 18.3177C93.2286 18.0396 93.5246 17.6719 93.7578 17.2144L93.9058 16.9319L94.4575 17.349ZM87.2053 15.0347C87.2053 15.5639 87.2771 16.0528 87.4206 16.5013C87.5731 16.9408 87.7749 17.331 88.026 17.6719C88.2772 18.0038 88.5687 18.2818 88.9006 18.5061C89.2325 18.7303 89.5868 18.8873 89.9635 18.977C90.0084 18.7258 90.0353 18.4657 90.0443 18.1966C90.0622 17.9185 90.0712 17.636 90.0712 17.349C90.0712 16.7121 90.0219 16.138 89.9232 15.6267C89.8245 15.1065 89.6944 14.667 89.533 14.3082C89.3715 13.9404 89.1832 13.6578 88.9679 13.4605C88.7526 13.2632 88.5328 13.1645 88.3086 13.1645C88.0036 13.1645 87.7435 13.3304 87.5282 13.6623C87.3129 13.9852 87.2053 14.4427 87.2053 15.0347ZM116.053 4.53993C116.053 5.33825 115.896 6.09172 115.582 6.80035C115.268 7.5 114.868 8.14583 114.384 8.73785C113.909 9.32986 113.384 9.86805 112.81 10.3524C112.245 10.8278 111.707 11.2405 111.195 11.5903C111.913 11.6531 112.626 11.828 113.335 12.115C114.052 12.3931 114.694 12.7833 115.259 13.2856C115.833 13.7789 116.295 14.3799 116.645 15.0885C117.003 15.7882 117.183 16.5865 117.183 17.4835C117.183 18.219 117.075 18.8828 116.86 19.4748C116.654 20.0579 116.375 20.5826 116.026 21.049C115.676 21.5065 115.277 21.9012 114.828 22.2331C114.389 22.565 113.94 22.8385 113.483 23.0538C113.025 23.2691 112.572 23.4261 112.124 23.5247C111.684 23.6324 111.294 23.6862 110.953 23.6862C110.092 23.6862 109.374 23.583 108.8 23.3767C108.235 23.1704 107.782 22.9193 107.441 22.6233C107.11 22.3183 106.876 21.9999 106.742 21.668C106.607 21.3361 106.54 21.0446 106.54 20.7934C106.54 20.4077 106.621 20.0399 106.782 19.6901C106.953 19.3313 107.177 19.0084 107.455 18.7214C107.733 18.4343 108.056 18.1832 108.424 17.9679C108.791 17.7436 109.173 17.5732 109.567 17.4566L109.85 17.9006C109.285 18.2056 108.868 18.6003 108.599 19.0846C108.329 19.56 108.195 20.0399 108.195 20.5243C108.195 20.7934 108.249 21.076 108.356 21.372C108.473 21.659 108.643 21.9236 108.868 22.1658C109.101 22.408 109.388 22.6098 109.729 22.7713C110.079 22.9238 110.487 23 110.953 23C111.635 23 112.272 22.8744 112.864 22.6233C113.456 22.3631 113.967 22.0088 114.398 21.5603C114.837 21.1029 115.178 20.5692 115.42 19.9592C115.671 19.3492 115.797 18.69 115.797 17.9813C115.797 17.2548 115.644 16.6134 115.339 16.0573C115.043 15.5012 114.644 15.0347 114.142 14.658C113.649 14.2723 113.075 13.9808 112.42 13.7834C111.774 13.5861 111.101 13.4874 110.401 13.4874C110.114 13.4874 109.832 13.5054 109.554 13.5412C109.276 13.5681 109.011 13.6085 108.76 13.6623C108.518 13.7072 108.298 13.752 108.101 13.7969C107.903 13.8417 107.751 13.8776 107.643 13.9045L107.509 13.77L108.747 11.8459C108.845 11.819 108.957 11.7876 109.083 11.7517C109.191 11.7248 109.321 11.6979 109.473 11.671C109.626 11.6351 109.796 11.6082 109.984 11.5903C110.415 11.3301 110.863 11.0027 111.33 10.6081C111.805 10.2044 112.236 9.74248 112.622 9.22222C113.016 8.693 113.339 8.10098 113.59 7.44618C113.85 6.79138 113.98 6.07827 113.98 5.30686C113.98 4.00622 113.671 3.02401 113.052 2.36024C112.433 1.69647 111.55 1.36458 110.401 1.36458C109.738 1.36458 109.069 1.5081 108.397 1.79514C107.724 2.0732 107.074 2.50376 106.446 3.0868C105.827 3.66985 105.244 4.40538 104.697 5.2934C104.158 6.18142 103.688 7.22642 103.284 8.42838C102.889 9.63035 102.575 10.9983 102.342 12.5321C102.109 14.066 101.992 15.7658 101.992 17.6315C101.992 18.4029 102.024 19.116 102.086 19.7708C102.158 20.4256 102.261 20.9952 102.396 21.4796C102.539 21.955 102.714 22.3273 102.921 22.5964C103.127 22.8655 103.369 23 103.647 23C103.925 23 104.145 22.7982 104.306 22.3945C104.477 21.9819 104.602 21.4482 104.683 20.7934C104.773 20.1296 104.827 19.3896 104.845 18.5734C104.872 17.7571 104.885 16.9363 104.885 16.1111C104.885 14.8553 104.867 13.6758 104.831 12.5725C104.795 11.4602 104.755 10.469 104.71 9.59896C104.674 8.72888 104.638 8.00231 104.602 7.41927C104.567 6.83623 104.544 6.44603 104.535 6.2487L106.096 5.77778C106.141 5.84954 106.204 6.06481 106.284 6.42361C106.365 6.78241 106.446 7.25781 106.526 7.84983C106.607 8.43287 106.674 9.11458 106.728 9.89496C106.791 10.6664 106.822 11.5006 106.822 12.3976C106.822 13.9135 106.778 15.2455 106.688 16.3937C106.607 17.5328 106.491 18.524 106.338 19.3672C106.186 20.2014 106.006 20.8966 105.8 21.4527C105.603 22.0088 105.383 22.4528 105.141 22.7847C104.907 23.1076 104.661 23.3364 104.401 23.4709C104.149 23.6144 103.898 23.6862 103.647 23.6862C103.1 23.6862 102.607 23.4978 102.167 23.1211C101.737 22.7533 101.369 22.2645 101.064 21.6545C100.759 21.0356 100.526 20.3315 100.364 19.5421C100.203 18.7438 100.122 17.923 100.122 17.0799C100.122 15.8689 100.234 14.6176 100.458 13.326C100.683 12.0343 101.014 10.774 101.454 9.54514C101.894 8.30729 102.436 7.13672 103.082 6.03342C103.728 4.92115 104.472 3.9524 105.316 3.12717C106.159 2.29297 107.096 1.63368 108.128 1.1493C109.168 0.655959 110.294 0.409287 111.505 0.409287C112.195 0.409287 112.819 0.503471 113.375 0.691839C113.94 0.871237 114.42 1.14033 114.815 1.49913C115.209 1.84896 115.514 2.27951 115.73 2.7908C115.945 3.30208 116.053 3.88513 116.053 4.53993ZM124.65 20.0803C124.605 20.1521 124.538 20.2776 124.448 20.457C124.368 20.6275 124.26 20.8203 124.125 21.0356C124 21.2509 123.847 21.4751 123.668 21.7083C123.498 21.9416 123.3 22.1523 123.076 22.3407C122.852 22.5291 122.601 22.6861 122.322 22.8116C122.053 22.9372 121.753 23 121.421 23C121.161 23 120.892 22.9462 120.614 22.8385C120.336 22.7309 120.076 22.5336 119.833 22.2465C119.6 21.9595 119.407 21.5693 119.255 21.076C119.102 20.5736 119.026 19.9278 119.026 19.1385C119.026 18.385 119.053 17.6315 119.107 16.878C119.161 16.1156 119.223 15.4204 119.295 14.7925C119.376 14.1646 119.452 13.6399 119.524 13.2183C119.596 12.7967 119.649 12.5411 119.685 12.4514C119.721 12.3707 119.793 12.2989 119.901 12.2361C120.008 12.1733 120.129 12.124 120.264 12.0881C120.407 12.0522 120.551 12.0253 120.694 12.0074C120.847 11.9894 120.977 11.9805 121.085 11.9805C121.228 11.9805 121.34 12.0163 121.421 12.0881C121.511 12.1599 121.556 12.281 121.556 12.4514C121.556 12.5321 121.538 12.6936 121.502 12.9358C121.475 13.169 121.439 13.456 121.394 13.7969C121.349 14.1377 121.3 14.5145 121.246 14.9271C121.201 15.3397 121.156 15.7613 121.112 16.1918C121.067 16.6134 121.026 17.035 120.99 17.4566C120.964 17.8692 120.95 18.2459 120.95 18.5868C120.95 19.5645 121.053 20.2911 121.26 20.7665C121.475 21.2419 121.825 21.4796 122.309 21.4796C122.722 21.4796 123.139 21.1791 123.56 20.5781C123.991 19.9771 124.363 19.1026 124.677 17.9544C124.722 17.4701 124.762 16.9543 124.798 16.4071C124.843 15.851 124.883 15.3262 124.919 14.8329C124.955 14.3306 124.987 13.8821 125.013 13.4874C125.049 13.0927 125.081 12.8102 125.108 12.6398C125.135 12.5142 125.206 12.411 125.323 12.3303C125.44 12.2406 125.57 12.1733 125.713 12.1285C125.866 12.0747 126.009 12.0388 126.144 12.0208C126.287 11.9939 126.395 11.9805 126.467 11.9805C126.619 11.9805 126.722 12.0163 126.776 12.0881C126.839 12.1509 126.87 12.2541 126.87 12.3976C126.87 12.5231 126.857 12.7653 126.83 13.1241C126.812 13.474 126.785 13.8866 126.749 14.362C126.722 14.8284 126.691 15.3307 126.655 15.8689C126.619 16.4071 126.583 16.9274 126.547 17.4297C126.52 17.923 126.493 18.3715 126.467 18.7752C126.449 19.1788 126.44 19.4838 126.44 19.6901C126.44 20.3001 126.471 20.7799 126.534 21.1298C126.606 21.4796 126.758 21.6545 126.991 21.6545C127.162 21.6545 127.346 21.5469 127.543 21.3316C127.749 21.1073 127.969 20.7979 128.202 20.4032C128.444 20.0085 128.705 19.5421 128.983 19.0039C129.261 18.4567 129.561 17.8602 129.884 17.2144L130.019 16.9319L130.57 17.349L130.436 17.6315C130.005 18.4837 129.624 19.2461 129.292 19.9188C128.969 20.5826 128.66 21.1432 128.364 21.6007C128.068 22.0582 127.767 22.408 127.462 22.6502C127.157 22.8834 126.816 23 126.44 23C126.09 23 125.798 22.9327 125.565 22.7982C125.341 22.6636 125.161 22.4708 125.027 22.2196C124.892 21.9685 124.794 21.6635 124.731 21.3047C124.677 20.9459 124.65 20.5378 124.65 20.0803ZM137.89 18.3177C137.89 18.9277 137.796 19.5152 137.607 20.0803C137.428 20.6364 137.159 21.1343 136.8 21.5738C136.45 22.0043 136.011 22.3497 135.481 22.6098C134.961 22.8699 134.365 23 133.692 23C133.207 23 132.772 22.9238 132.387 22.7713C132.01 22.6098 131.687 22.399 131.418 22.1389C131.149 21.8698 130.943 21.5693 130.799 21.2374C130.656 20.8966 130.584 20.5467 130.584 20.1879C130.584 19.8291 130.651 19.4973 130.786 19.1923C130.929 18.8783 131.117 18.6137 131.351 18.3984C131.593 18.1742 131.866 17.9993 132.171 17.8737C132.476 17.7481 132.799 17.6853 133.14 17.6853C133.355 17.6853 133.58 17.7122 133.813 17.7661V18.1562C133.526 18.1562 133.243 18.2146 132.965 18.3312C132.696 18.4478 132.454 18.6092 132.239 18.8155C132.032 19.0129 131.866 19.2551 131.741 19.5421C131.615 19.8202 131.553 20.1207 131.553 20.4436C131.553 21.0356 131.754 21.511 132.158 21.8698C132.571 22.2196 133.131 22.3945 133.84 22.3945C134.199 22.3945 134.526 22.3273 134.822 22.1927C135.118 22.0492 135.369 21.8563 135.576 21.6141C135.791 21.363 135.952 21.067 136.06 20.7261C136.177 20.3853 136.235 20.013 136.235 19.6094C136.235 19.2237 136.159 18.8649 136.006 18.533C135.854 18.2011 135.652 17.8872 135.401 17.5911C135.149 17.2951 134.862 17.0171 134.539 16.7569C134.226 16.4968 133.903 16.2501 133.571 16.0169C133.248 15.7747 132.929 15.5415 132.615 15.3173C132.302 15.093 132.028 14.8688 131.795 14.6445L130.449 17.6315L129.898 17.2144L131.27 14.214C130.938 13.9 130.691 13.604 130.53 13.326C130.377 13.0389 130.301 12.6981 130.301 12.3034C130.301 12.0881 130.337 11.8863 130.409 11.6979C130.49 11.5006 130.593 11.3346 130.718 11.2001C130.853 11.0566 131.005 10.9444 131.176 10.8637C131.346 10.783 131.526 10.7426 131.714 10.7426C132.055 10.7426 132.31 10.8413 132.481 11.0386C132.651 11.227 132.737 11.4647 132.737 11.7517C132.737 11.8863 132.723 12.0298 132.696 12.1823C132.669 12.3258 132.633 12.4738 132.589 12.6263C132.553 12.7698 132.512 12.9044 132.467 13.0299C132.432 13.1555 132.4 13.2632 132.373 13.3529C132.642 13.5592 132.965 13.761 133.342 13.9583C133.719 14.1467 134.109 14.344 134.513 14.5503C134.925 14.7567 135.333 14.9809 135.737 15.2231C136.141 15.4653 136.499 15.7344 136.813 16.0304C137.136 16.3264 137.396 16.6628 137.594 17.0395C137.791 17.4162 137.89 17.8423 137.89 18.3177ZM131.741 11.3481C131.615 11.3481 131.512 11.3929 131.431 11.4826C131.36 11.5634 131.324 11.6755 131.324 11.819C131.324 11.9805 131.364 12.1599 131.445 12.3572C131.526 12.5545 131.669 12.7474 131.875 12.9358C131.965 12.7474 132.032 12.5635 132.077 12.3841C132.131 12.2047 132.158 12.0253 132.158 11.8459C132.158 11.7024 132.118 11.5858 132.037 11.4961C131.965 11.3974 131.866 11.3481 131.741 11.3481ZM139.679 17.0799L139.545 17.349L139.41 17.6315L138.859 17.2144L138.993 16.9319C139.217 16.4744 139.401 16.0169 139.545 15.5595C139.697 15.093 139.818 14.658 139.908 14.2543C140.007 13.8507 140.087 13.4964 140.15 13.1914C140.213 12.8864 140.276 12.6667 140.339 12.5321C140.392 12.4245 140.469 12.3393 140.567 12.2765C140.675 12.2047 140.783 12.1464 140.89 12.1016C141.007 12.0567 141.114 12.0253 141.213 12.0074C141.321 11.9894 141.397 11.9805 141.442 11.9805C141.639 11.9805 141.769 12.0208 141.832 12.1016C141.904 12.1823 141.94 12.3258 141.94 12.5321C141.94 12.6308 141.917 12.8775 141.872 13.2721C141.837 13.6578 141.792 14.1467 141.738 14.7387C141.693 15.3218 141.648 15.981 141.603 16.7166C141.567 17.4431 141.549 18.1966 141.549 18.977C141.549 19.5421 141.576 19.9906 141.63 20.3225C141.684 20.6454 141.751 20.8876 141.832 21.049C141.922 21.2105 142.016 21.3137 142.115 21.3585C142.222 21.4034 142.33 21.4258 142.438 21.4258C142.581 21.4258 142.742 21.363 142.922 21.2374C143.101 21.1118 143.312 20.8921 143.554 20.5781C143.796 20.2552 144.075 19.8247 144.388 19.2865C144.702 18.7393 145.07 18.0486 145.492 17.2144L145.64 16.9319L146.191 17.349L146.043 17.6315C145.703 18.2953 145.362 18.9501 145.021 19.5959C144.689 20.2418 144.348 20.8158 143.998 21.3181C143.657 21.8205 143.312 22.2286 142.962 22.5425C142.612 22.8475 142.263 23 141.913 23C141.545 23 141.227 22.9282 140.957 22.7847C140.697 22.6322 140.478 22.3856 140.298 22.0447C140.128 21.7038 139.998 21.2554 139.908 20.6992C139.827 20.1341 139.787 19.4389 139.787 18.6137C139.787 18.3805 139.787 18.1383 139.787 17.8872C139.787 17.627 139.796 17.3579 139.814 17.0799H139.679ZM142.438 9.22222C142.438 9.53617 142.33 9.80078 142.115 10.0161C141.908 10.2224 141.648 10.3255 141.334 10.3255C141.029 10.3255 140.769 10.2224 140.554 10.0161C140.339 9.80078 140.231 9.53617 140.231 9.22222C140.231 8.91724 140.339 8.65712 140.554 8.44184C140.769 8.22656 141.029 8.11892 141.334 8.11892C141.648 8.11892 141.908 8.22656 142.115 8.44184C142.33 8.65712 142.438 8.91724 142.438 9.22222ZM150.82 12.9089C150.569 12.9089 150.286 13.021 149.972 13.2452C149.667 13.4695 149.358 13.761 149.044 14.1198C148.73 14.4696 148.425 14.8643 148.129 15.3038C147.842 15.7433 147.591 16.1784 147.375 16.6089C147.349 17.3983 147.322 18.2594 147.295 19.1923C147.277 20.1251 147.268 21.1208 147.268 22.1793C147.268 22.3138 147.205 22.4349 147.079 22.5425C146.963 22.6412 146.824 22.7264 146.662 22.7982C146.501 22.861 146.335 22.9103 146.165 22.9462C145.994 22.9821 145.855 23 145.747 23C145.613 23 145.487 22.9596 145.371 22.8789C145.254 22.7982 145.196 22.6188 145.196 22.3407C145.196 22.2062 145.209 22.0402 145.236 21.8429C145.263 21.6366 145.299 21.4168 145.344 21.1836C145.38 20.9504 145.424 20.7127 145.478 20.4705C145.523 20.2193 145.568 19.9861 145.613 19.7708V13.1914C145.613 13.012 145.617 12.873 145.626 12.7743C145.626 12.6667 145.64 12.5859 145.667 12.5321C145.72 12.4065 145.815 12.3079 145.949 12.2361C146.084 12.1644 146.227 12.1105 146.38 12.0747C146.532 12.0298 146.68 12.0029 146.824 11.9939C146.967 11.985 147.079 11.9805 147.16 11.9805C147.313 11.9805 147.416 12.0208 147.47 12.1016C147.532 12.1823 147.564 12.3258 147.564 12.5321C147.564 12.5052 147.541 12.725 147.497 13.1914C147.461 13.6578 147.429 14.3261 147.402 15.1962C147.671 14.7746 147.963 14.3709 148.277 13.9852C148.591 13.5995 148.918 13.2587 149.259 12.9627C149.6 12.6667 149.95 12.429 150.309 12.2496C150.676 12.0702 151.049 11.9805 151.425 11.9805C152.098 11.9805 152.591 12.1957 152.905 12.6263C153.219 13.0479 153.376 13.622 153.376 14.3485C153.376 14.806 153.345 15.3173 153.282 15.8824C153.228 16.4385 153.161 17.0081 153.08 17.5911C153.009 18.1652 152.941 18.7303 152.878 19.2865C152.825 19.8336 152.798 20.3359 152.798 20.7934C152.798 21.3854 152.982 21.6814 153.349 21.6814C153.466 21.6814 153.601 21.6231 153.753 21.5065C153.915 21.3809 154.112 21.1522 154.345 20.8203C154.587 20.4884 154.874 20.0354 155.206 19.4614C155.538 18.8783 155.933 18.1293 156.39 17.2144L156.525 16.9319L157.076 17.349L156.942 17.6315C156.404 18.7079 155.924 19.5914 155.502 20.2821C155.09 20.9728 154.713 21.52 154.372 21.9236C154.031 22.3273 153.713 22.6098 153.417 22.7713C153.121 22.9238 152.825 23 152.529 23C152.34 23 152.152 22.9731 151.964 22.9193C151.775 22.8655 151.609 22.7713 151.466 22.6367C151.322 22.5022 151.206 22.3228 151.116 22.0985C151.026 21.8653 150.981 21.5693 150.981 21.2105C150.981 20.6723 151.017 20.0668 151.089 19.3941C151.161 18.7214 151.241 18.0486 151.331 17.3759C151.421 16.7031 151.502 16.0707 151.573 15.4787C151.645 14.8777 151.681 14.3889 151.681 14.0122C151.681 13.6803 151.609 13.4157 151.466 13.2183C151.322 13.012 151.107 12.9089 150.82 12.9089ZM160.507 21.4796C160.821 21.4796 161.14 21.3989 161.463 21.2374C161.795 21.076 162.126 20.8248 162.458 20.4839C162.799 20.1431 163.149 19.7036 163.508 19.1654C163.867 18.6182 164.234 17.9679 164.611 17.2144L164.746 16.9319L165.297 17.349L165.163 17.6315C164.678 18.5913 164.194 19.412 163.71 20.0937C163.234 20.7755 162.763 21.3316 162.297 21.7622C161.839 22.1927 161.386 22.5067 160.938 22.704C160.489 22.9013 160.059 23 159.646 23C159.063 23 158.543 22.8789 158.086 22.6367C157.628 22.3945 157.242 22.0671 156.928 21.6545C156.614 21.2329 156.377 20.7486 156.215 20.2014C156.045 19.6453 155.96 19.0622 155.96 18.4523C155.96 17.4835 156.094 16.6045 156.363 15.8151C156.623 15.0168 156.973 14.3351 157.413 13.77C157.861 13.2049 158.368 12.7653 158.933 12.4514C159.498 12.1374 160.086 11.9805 160.696 11.9805C161.315 11.9805 161.786 12.1374 162.109 12.4514C162.44 12.7653 162.606 13.16 162.606 13.6354C162.606 14.0929 162.476 14.5234 162.216 14.9271C161.956 15.3218 161.602 15.7119 161.153 16.0977C160.714 16.4744 160.202 16.8511 159.619 17.2279C159.036 17.5956 158.422 17.9769 157.776 18.3715C157.839 18.838 157.946 19.264 158.099 19.6497C158.251 20.0265 158.444 20.3539 158.678 20.6319C158.911 20.901 159.18 21.1118 159.485 21.2643C159.79 21.4078 160.131 21.4796 160.507 21.4796ZM160.924 14.0391C160.924 13.6803 160.826 13.3977 160.628 13.1914C160.44 12.9851 160.207 12.8819 159.929 12.8819C159.696 12.8819 159.449 12.9672 159.189 13.1376C158.929 13.299 158.691 13.5637 158.476 13.9314C158.26 14.2902 158.081 14.7522 157.938 15.3173C157.794 15.8824 157.722 16.5686 157.722 17.3759V17.6853C158.027 17.5239 158.364 17.3131 158.731 17.053C159.108 16.7839 159.458 16.4878 159.781 16.1649C160.104 15.842 160.373 15.5012 160.588 15.1424C160.812 14.7746 160.924 14.4068 160.924 14.0391ZM172.603 18.3177C172.603 18.9277 172.509 19.5152 172.321 20.0803C172.141 20.6364 171.872 21.1343 171.513 21.5738C171.164 22.0043 170.724 22.3497 170.195 22.6098C169.675 22.8699 169.078 23 168.405 23C167.921 23 167.486 22.9238 167.1 22.7713C166.724 22.6098 166.401 22.399 166.132 22.1389C165.862 21.8698 165.656 21.5693 165.513 21.2374C165.369 20.8966 165.297 20.5467 165.297 20.1879C165.297 19.8291 165.365 19.4973 165.499 19.1923C165.643 18.8783 165.831 18.6137 166.064 18.3984C166.306 18.1742 166.58 17.9993 166.885 17.8737C167.19 17.7481 167.513 17.6853 167.854 17.6853C168.069 17.6853 168.293 17.7122 168.526 17.7661V18.1562C168.239 18.1562 167.957 18.2146 167.679 18.3312C167.41 18.4478 167.168 18.6092 166.952 18.8155C166.746 19.0129 166.58 19.2551 166.454 19.5421C166.329 19.8202 166.266 20.1207 166.266 20.4436C166.266 21.0356 166.468 21.511 166.872 21.8698C167.284 22.2196 167.845 22.3945 168.553 22.3945C168.912 22.3945 169.24 22.3273 169.536 22.1927C169.832 22.0492 170.083 21.8563 170.289 21.6141C170.504 21.363 170.666 21.067 170.773 20.7261C170.89 20.3853 170.948 20.013 170.948 19.6094C170.948 19.2237 170.872 18.8649 170.72 18.533C170.567 18.2011 170.365 17.8872 170.114 17.5911C169.863 17.2951 169.576 17.0171 169.253 16.7569C168.939 16.4968 168.616 16.2501 168.284 16.0169C167.961 15.7747 167.643 15.5415 167.329 15.3173C167.015 15.093 166.741 14.8688 166.508 14.6445L165.163 17.6315L164.611 17.2144L165.984 14.214C165.652 13.9 165.405 13.604 165.243 13.326C165.091 13.0389 165.015 12.6981 165.015 12.3034C165.015 12.0881 165.051 11.8863 165.122 11.6979C165.203 11.5006 165.306 11.3346 165.432 11.2001C165.566 11.0566 165.719 10.9444 165.889 10.8637C166.06 10.783 166.239 10.7426 166.428 10.7426C166.768 10.7426 167.024 10.8413 167.194 11.0386C167.365 11.227 167.45 11.4647 167.45 11.7517C167.45 11.8863 167.437 12.0298 167.41 12.1823C167.383 12.3258 167.347 12.4738 167.302 12.6263C167.266 12.7698 167.226 12.9044 167.181 13.0299C167.145 13.1555 167.114 13.2632 167.087 13.3529C167.356 13.5592 167.679 13.761 168.056 13.9583C168.432 14.1467 168.822 14.344 169.226 14.5503C169.639 14.7567 170.047 14.9809 170.451 15.2231C170.854 15.4653 171.213 15.7344 171.527 16.0304C171.85 16.3264 172.11 16.6628 172.307 17.0395C172.505 17.4162 172.603 17.8423 172.603 18.3177ZM166.454 11.3481C166.329 11.3481 166.226 11.3929 166.145 11.4826C166.073 11.5634 166.037 11.6755 166.037 11.819C166.037 11.9805 166.078 12.1599 166.158 12.3572C166.239 12.5545 166.383 12.7474 166.589 12.9358C166.679 12.7474 166.746 12.5635 166.791 12.3841C166.845 12.2047 166.872 12.0253 166.872 11.8459C166.872 11.7024 166.831 11.5858 166.75 11.4961C166.679 11.3974 166.58 11.3481 166.454 11.3481ZM181.564 18.3177C181.564 18.9277 181.47 19.5152 181.282 20.0803C181.102 20.6364 180.833 21.1343 180.474 21.5738C180.125 22.0043 179.685 22.3497 179.156 22.6098C178.636 22.8699 178.039 23 177.366 23C176.882 23 176.447 22.9238 176.061 22.7713C175.684 22.6098 175.362 22.399 175.092 22.1389C174.823 21.8698 174.617 21.5693 174.474 21.2374C174.33 20.8966 174.258 20.5467 174.258 20.1879C174.258 19.8291 174.326 19.4973 174.46 19.1923C174.604 18.8783 174.792 18.6137 175.025 18.3984C175.267 18.1742 175.541 17.9993 175.846 17.8737C176.151 17.7481 176.474 17.6853 176.815 17.6853C177.03 17.6853 177.254 17.7122 177.487 17.7661V18.1562C177.2 18.1562 176.918 18.2146 176.64 18.3312C176.371 18.4478 176.128 18.6092 175.913 18.8155C175.707 19.0129 175.541 19.2551 175.415 19.5421C175.29 19.8202 175.227 20.1207 175.227 20.4436C175.227 21.0356 175.429 21.511 175.832 21.8698C176.245 22.2196 176.806 22.3945 177.514 22.3945C177.873 22.3945 178.201 22.3273 178.497 22.1927C178.793 22.0492 179.044 21.8563 179.25 21.6141C179.465 21.363 179.627 21.067 179.734 20.7261C179.851 20.3853 179.909 20.013 179.909 19.6094C179.909 19.2237 179.833 18.8649 179.681 18.533C179.528 18.2011 179.326 17.8872 179.075 17.5911C178.824 17.2951 178.537 17.0171 178.214 16.7569C177.9 16.4968 177.577 16.2501 177.245 16.0169C176.922 15.7747 176.604 15.5415 176.29 15.3173C175.976 15.093 175.702 14.8688 175.469 14.6445L174.124 17.6315L173.572 17.2144L174.944 14.214C174.613 13.9 174.366 13.604 174.204 13.326C174.052 13.0389 173.976 12.6981 173.976 12.3034C173.976 12.0881 174.012 11.8863 174.083 11.6979C174.164 11.5006 174.267 11.3346 174.393 11.2001C174.527 11.0566 174.68 10.9444 174.85 10.8637C175.021 10.783 175.2 10.7426 175.388 10.7426C175.729 10.7426 175.985 10.8413 176.155 11.0386C176.326 11.227 176.411 11.4647 176.411 11.7517C176.411 11.8863 176.398 12.0298 176.371 12.1823C176.344 12.3258 176.308 12.4738 176.263 12.6263C176.227 12.7698 176.187 12.9044 176.142 13.0299C176.106 13.1555 176.075 13.2632 176.048 13.3529C176.317 13.5592 176.64 13.761 177.017 13.9583C177.393 14.1467 177.783 14.344 178.187 14.5503C178.6 14.7567 179.008 14.9809 179.411 15.2231C179.815 15.4653 180.174 15.7344 180.488 16.0304C180.811 16.3264 181.071 16.6628 181.268 17.0395C181.466 17.4162 181.564 17.8423 181.564 18.3177ZM175.415 11.3481C175.29 11.3481 175.187 11.3929 175.106 11.4826C175.034 11.5634 174.998 11.6755 174.998 11.819C174.998 11.9805 175.039 12.1599 175.119 12.3572C175.2 12.5545 175.344 12.7474 175.55 12.9358C175.64 12.7474 175.707 12.5635 175.752 12.3841C175.806 12.2047 175.832 12.0253 175.832 11.8459C175.832 11.7024 175.792 11.5858 175.711 11.4961C175.64 11.3974 175.541 11.3481 175.415 11.3481Z" fill="black"/>
</svg>
