<svg width="166" height="30" viewBox="0 0 166 30" fill="none" xmlns="http://www.w3.org/2000/svg">
<path d="M16.7826 4.53993C16.7826 5.33825 16.6256 6.09172 16.3116 6.80035C15.9977 7.5 15.5985 8.14583 15.1142 8.73785C14.6387 9.32986 14.114 9.86805 13.5399 10.3524C12.9748 10.8278 12.4366 11.2405 11.9253 11.5903C12.6429 11.6531 13.356 11.828 14.0647 12.115C14.7823 12.3931 15.4236 12.7833 15.9887 13.2856C16.5628 13.7789 17.0247 14.3799 17.3746 15.0885C17.7334 15.7882 17.9128 16.5865 17.9128 17.4835C17.9128 18.219 17.8051 18.8828 17.5898 19.4748C17.3835 20.0579 17.1055 20.5826 16.7556 21.049C16.4058 21.5065 16.0067 21.9012 15.5582 22.2331C15.1186 22.565 14.6701 22.8385 14.2127 23.0538C13.7552 23.2691 13.3022 23.4261 12.8537 23.5247C12.4142 23.6324 12.024 23.6862 11.6832 23.6862C10.822 23.6862 10.1045 23.583 9.53038 23.3767C8.96528 23.1704 8.5123 22.9193 8.17144 22.6233C7.83955 22.3183 7.60634 21.9999 7.47179 21.668C7.33724 21.3361 7.26997 21.0446 7.26997 20.7934C7.26997 20.4077 7.35069 20.0399 7.51215 19.6901C7.68258 19.3313 7.90683 19.0084 8.1849 18.7214C8.46296 18.4343 8.78588 18.1832 9.15365 17.9679C9.52141 17.7436 9.90263 17.5732 10.2973 17.4566L10.5799 17.9006C10.0148 18.2056 9.59766 18.6003 9.32856 19.0846C9.05946 19.56 8.92491 20.0399 8.92491 20.5243C8.92491 20.7934 8.97873 21.076 9.08637 21.372C9.20298 21.659 9.37341 21.9236 9.59766 22.1658C9.83087 22.408 10.1179 22.6098 10.4588 22.7713C10.8086 22.9238 11.2167 23 11.6832 23C12.3649 23 13.0017 22.8744 13.5938 22.6233C14.1858 22.3631 14.697 22.0088 15.1276 21.5603C15.5671 21.1029 15.908 20.5692 16.1502 19.9592C16.4013 19.3492 16.5269 18.69 16.5269 17.9813C16.5269 17.2548 16.3744 16.6134 16.0694 16.0573C15.7734 15.5012 15.3743 15.0347 14.872 14.658C14.3786 14.2723 13.8045 13.9808 13.1497 13.7834C12.5039 13.5861 11.8312 13.4874 11.1315 13.4874C10.8445 13.4874 10.5619 13.5054 10.2839 13.5412C10.0058 13.5681 9.74118 13.6085 9.49002 13.6623C9.24783 13.7072 9.02807 13.752 8.83073 13.7969C8.63339 13.8417 8.4809 13.8776 8.37326 13.9045L8.23872 13.77L9.47656 11.8459C9.57523 11.819 9.68736 11.7876 9.81293 11.7517C9.92057 11.7248 10.0506 11.6979 10.2031 11.671C10.3556 11.6351 10.526 11.6082 10.7144 11.5903C11.145 11.3301 11.5935 11.0027 12.0599 10.6081C12.5353 10.2044 12.9659 9.74248 13.3516 9.22222C13.7462 8.693 14.0692 8.10098 14.3203 7.44618C14.5804 6.79138 14.7105 6.07827 14.7105 5.30686C14.7105 4.00622 14.401 3.02401 13.7821 2.36024C13.1632 1.69647 12.2797 1.36458 11.1315 1.36458C10.4677 1.36458 9.79948 1.5081 9.12674 1.79514C8.45399 2.0732 7.80368 2.50376 7.17578 3.0868C6.55686 3.66985 5.97381 4.40538 5.42665 5.2934C4.88846 6.18142 4.41753 7.22642 4.01389 8.42838C3.61921 9.63035 3.30527 10.9983 3.07205 12.5321C2.83883 14.066 2.72222 15.7658 2.72222 17.6315C2.72222 18.4029 2.75362 19.116 2.81641 19.7708C2.88817 20.4256 2.99132 20.9952 3.12587 21.4796C3.26939 21.955 3.4443 22.3273 3.65061 22.5964C3.85692 22.8655 4.0991 23 4.37717 23C4.65524 23 4.875 22.7982 5.03646 22.3945C5.20689 21.9819 5.33247 21.4482 5.41319 20.7934C5.50289 20.1296 5.55671 19.3896 5.57465 18.5734C5.60156 17.7571 5.61502 16.9363 5.61502 16.1111C5.61502 14.8553 5.59708 13.6758 5.5612 12.5725C5.52532 11.4602 5.48495 10.469 5.4401 9.59896C5.40422 8.72888 5.36835 8.00231 5.33247 7.41927C5.29659 6.83623 5.27416 6.44603 5.26519 6.2487L6.82596 5.77778C6.8708 5.84954 6.93359 6.06481 7.01432 6.42361C7.09505 6.78241 7.17578 7.25781 7.25651 7.84983C7.33724 8.43287 7.40451 9.11458 7.45833 9.89496C7.52112 10.6664 7.55252 11.5006 7.55252 12.3976C7.55252 13.9135 7.50767 15.2455 7.41797 16.3937C7.33724 17.5328 7.22063 18.524 7.06814 19.3672C6.91565 20.2014 6.73626 20.8966 6.52995 21.4527C6.33261 22.0088 6.11285 22.4528 5.87066 22.7847C5.63744 23.1076 5.39077 23.3364 5.13064 23.4709C4.87949 23.6144 4.62833 23.6862 4.37717 23.6862C3.83001 23.6862 3.33666 23.4978 2.89714 23.1211C2.46658 22.7533 2.09881 22.2645 1.79384 21.6545C1.48886 21.0356 1.25564 20.3315 1.09418 19.5421C0.932726 18.7438 0.851997 17.923 0.851997 17.0799C0.851997 15.8689 0.96412 14.6176 1.18837 13.326C1.41262 12.0343 1.7445 10.774 2.18403 9.54514C2.62355 8.30729 3.16623 7.13672 3.81207 6.03342C4.4579 4.92115 5.2024 3.9524 6.04557 3.12717C6.88874 2.29297 7.8261 1.63368 8.85764 1.1493C9.89815 0.655959 11.0239 0.409287 12.2348 0.409287C12.9255 0.409287 13.5489 0.503471 14.105 0.691839C14.6701 0.871237 15.15 1.14033 15.5447 1.49913C15.9394 1.84896 16.2444 2.27951 16.4596 2.7908C16.6749 3.30208 16.7826 3.88513 16.7826 4.53993ZM23.8329 21.4796C24.1468 21.4796 24.4653 21.3989 24.7882 21.2374C25.1201 21.076 25.452 20.8248 25.7839 20.4839C26.1247 20.1431 26.4745 19.7036 26.8333 19.1654C27.1921 18.6182 27.5599 17.9679 27.9366 17.2144L28.0712 16.9319L28.6228 17.349L28.4883 17.6315C28.0039 18.5913 27.5195 19.412 27.0352 20.0937C26.5598 20.7755 26.0888 21.3316 25.6224 21.7622C25.1649 22.1927 24.712 22.5067 24.2635 22.704C23.815 22.9013 23.3844 23 22.9718 23C22.3887 23 21.8685 22.8789 21.411 22.6367C20.9536 22.3945 20.5679 22.0671 20.2539 21.6545C19.94 21.2329 19.7023 20.7486 19.5408 20.2014C19.3704 19.6453 19.2852 19.0622 19.2852 18.4523C19.2852 17.4835 19.4197 16.6045 19.6888 15.8151C19.9489 15.0168 20.2988 14.3351 20.7383 13.77C21.1868 13.2049 21.6936 12.7653 22.2587 12.4514C22.8238 12.1374 23.4113 11.9805 24.0213 11.9805C24.6402 11.9805 25.1111 12.1374 25.434 12.4514C25.7659 12.7653 25.9319 13.16 25.9319 13.6354C25.9319 14.0929 25.8018 14.5234 25.5417 14.9271C25.2815 15.3218 24.9272 15.7119 24.4787 16.0977C24.0392 16.4744 23.5279 16.8511 22.9449 17.2279C22.3618 17.5956 21.7474 17.9769 21.1016 18.3715C21.1644 18.838 21.272 19.264 21.4245 19.6497C21.577 20.0265 21.7698 20.3539 22.003 20.6319C22.2363 20.901 22.5054 21.1118 22.8103 21.2643C23.1153 21.4078 23.4562 21.4796 23.8329 21.4796ZM24.25 14.0391C24.25 13.6803 24.1513 13.3977 23.954 13.1914C23.7656 12.9851 23.5324 12.8819 23.2543 12.8819C23.0211 12.8819 22.7745 12.9672 22.5143 13.1376C22.2542 13.299 22.0165 13.5637 21.8012 13.9314C21.5859 14.2902 21.4065 14.7522 21.263 15.3173C21.1195 15.8824 21.0477 16.5686 21.0477 17.3759V17.6853C21.3527 17.5239 21.6891 17.3131 22.0569 17.053C22.4336 16.7839 22.7834 16.4878 23.1063 16.1649C23.4293 15.842 23.6984 15.5012 23.9136 15.1424C24.1379 14.7746 24.25 14.4068 24.25 14.0391ZM36.2248 19.6632C36.2248 20.1745 36.2697 20.605 36.3594 20.9549C36.4491 21.3047 36.606 21.4796 36.8303 21.4796C36.9648 21.4796 37.1084 21.4168 37.2609 21.2912C37.4223 21.1567 37.6062 20.9414 37.8125 20.6454C38.0188 20.3494 38.252 19.9682 38.5122 19.5017C38.7813 19.0263 39.0862 18.4478 39.4271 17.7661L39.8307 16.9319L40.3824 17.349L39.9787 18.1832C39.602 18.9366 39.2477 19.6139 38.9158 20.2148C38.5929 20.8069 38.2834 21.3092 37.9874 21.7218C37.6914 22.1344 37.3999 22.4528 37.1128 22.6771C36.8348 22.8924 36.5567 23 36.2786 23C35.9826 23 35.7315 22.9193 35.5252 22.7578C35.3278 22.5964 35.1619 22.3766 35.0273 22.0985C34.8928 21.8115 34.7896 21.4841 34.7179 21.1163C34.6461 20.7396 34.5968 20.3404 34.5699 19.9188C34.3546 20.3494 34.1169 20.753 33.8568 21.1298C33.5966 21.4975 33.3231 21.8205 33.036 22.0985C32.758 22.3766 32.4664 22.5964 32.1615 22.7578C31.8565 22.9193 31.5515 23 31.2465 23C30.798 23 30.363 22.9058 29.9414 22.7174C29.5198 22.5291 29.1431 22.242 28.8112 21.8563C28.4883 21.4706 28.2282 20.9863 28.0308 20.4032C27.8335 19.8112 27.7348 19.116 27.7348 18.3177C27.7348 17.3848 27.8559 16.5327 28.0981 15.7613C28.3403 14.9809 28.6677 14.3126 29.0803 13.7565C29.4929 13.1914 29.9683 12.7564 30.5065 12.4514C31.0447 12.1374 31.6098 11.9805 32.2018 11.9805C32.5606 11.9805 32.8925 12.0612 33.1975 12.2227C33.5025 12.3841 33.7671 12.5815 33.9913 12.8147C34.2245 13.0389 34.4174 13.2811 34.5699 13.5412C34.7224 13.7924 34.8255 14.0077 34.8793 14.1871L35.0408 12.8819C35.0587 12.7115 35.1395 12.568 35.283 12.4514C35.4355 12.3348 35.6014 12.2451 35.7808 12.1823C35.9602 12.1105 36.1351 12.0612 36.3056 12.0343C36.476 11.9984 36.5971 11.9805 36.6688 11.9805C36.7765 11.9805 36.8482 11.9984 36.8841 12.0343C36.92 12.0702 36.9379 12.1419 36.9379 12.2496C36.9379 12.3841 36.8976 12.6577 36.8168 13.0703C36.7451 13.474 36.6644 13.9942 36.5747 14.6311C36.4939 15.259 36.4132 15.999 36.3325 16.8511C36.2607 17.7033 36.2248 18.6406 36.2248 19.6632ZM34.7448 16.1111C34.7448 15.6985 34.682 15.2948 34.5564 14.9002C34.4308 14.4965 34.2604 14.1422 34.0451 13.8372C33.8299 13.5233 33.5787 13.2721 33.2917 13.0838C33.0136 12.8954 32.7176 12.8012 32.4036 12.8012C32.0179 12.8012 31.6547 12.9133 31.3138 13.1376C30.9819 13.3529 30.6904 13.6623 30.4392 14.066C30.1971 14.4606 30.0042 14.9405 29.8607 15.5056C29.7172 16.0618 29.6454 16.6762 29.6454 17.349C29.6454 18.6944 29.8562 19.7215 30.2778 20.4301C30.6994 21.1298 31.26 21.4796 31.9596 21.4796C32.2646 21.4796 32.5786 21.3585 32.9015 21.1163C33.2334 20.8652 33.5339 20.5109 33.803 20.0534C34.081 19.587 34.3053 19.0218 34.4757 18.3581C34.6551 17.6943 34.7448 16.9453 34.7448 16.1111ZM45.3472 20.0803C45.3024 20.1521 45.2351 20.2776 45.1454 20.457C45.0647 20.6275 44.957 20.8203 44.8225 21.0356C44.6969 21.2509 44.5444 21.4751 44.365 21.7083C44.1946 21.9416 43.9973 22.1523 43.773 22.3407C43.5488 22.5291 43.2976 22.6861 43.0195 22.8116C42.7504 22.9372 42.4499 23 42.1181 23C41.8579 23 41.5888 22.9462 41.3108 22.8385C41.0327 22.7309 40.7726 22.5336 40.5304 22.2465C40.2972 21.9595 40.1043 21.5693 39.9518 21.076C39.7993 20.5736 39.7231 19.9278 39.7231 19.1385C39.7231 18.385 39.75 17.6315 39.8038 16.878C39.8576 16.1156 39.9204 15.4204 39.9922 14.7925C40.0729 14.1646 40.1492 13.6399 40.2209 13.2183C40.2927 12.7967 40.3465 12.5411 40.3824 12.4514C40.4183 12.3707 40.49 12.2989 40.5977 12.2361C40.7053 12.1733 40.8264 12.124 40.9609 12.0881C41.1045 12.0522 41.248 12.0253 41.3915 12.0074C41.544 11.9894 41.674 11.9805 41.7817 11.9805C41.9252 11.9805 42.0373 12.0163 42.1181 12.0881C42.2078 12.1599 42.2526 12.281 42.2526 12.4514C42.2526 12.5321 42.2347 12.6936 42.1988 12.9358C42.1719 13.169 42.136 13.456 42.0911 13.7969C42.0463 14.1377 41.997 14.5145 41.9431 14.9271C41.8983 15.3397 41.8534 15.7613 41.8086 16.1918C41.7637 16.6134 41.7234 17.035 41.6875 17.4566C41.6606 17.8692 41.6471 18.2459 41.6471 18.5868C41.6471 19.5645 41.7503 20.2911 41.9566 20.7665C42.1719 21.2419 42.5217 21.4796 43.0061 21.4796C43.4187 21.4796 43.8358 21.1791 44.2574 20.5781C44.6879 19.9771 45.0602 19.1026 45.3741 17.9544C45.419 17.4701 45.4593 16.9543 45.4952 16.4071C45.5401 15.851 45.5804 15.3262 45.6163 14.8329C45.6522 14.3306 45.6836 13.8821 45.7105 13.4874C45.7464 13.0927 45.7778 12.8102 45.8047 12.6398C45.8316 12.5142 45.9034 12.411 46.02 12.3303C46.1366 12.2406 46.2666 12.1733 46.4102 12.1285C46.5626 12.0747 46.7062 12.0388 46.8407 12.0208C46.9842 11.9939 47.0919 11.9805 47.1636 11.9805C47.3161 11.9805 47.4193 12.0163 47.4731 12.0881C47.5359 12.1509 47.5673 12.2541 47.5673 12.3976C47.5673 12.5231 47.5538 12.7653 47.5269 13.1241C47.509 13.474 47.4821 13.8866 47.4462 14.362C47.4193 14.8284 47.3879 15.3307 47.352 15.8689C47.3161 16.4071 47.2802 16.9274 47.2444 17.4297C47.2174 17.923 47.1905 18.3715 47.1636 18.7752C47.1457 19.1788 47.1367 19.4838 47.1367 19.6901C47.1367 20.3001 47.1681 20.7799 47.2309 21.1298C47.3027 21.4796 47.4552 21.6545 47.6884 21.6545C47.8588 21.6545 48.0427 21.5469 48.24 21.3316C48.4463 21.1073 48.6661 20.7979 48.8993 20.4032C49.1415 20.0085 49.4016 19.5421 49.6797 19.0039C49.9578 18.4567 50.2582 17.8602 50.5812 17.2144L50.7157 16.9319L51.2674 17.349L51.1328 17.6315C50.7023 18.4837 50.321 19.2461 49.9892 19.9188C49.6662 20.5826 49.3568 21.1432 49.0608 21.6007C48.7648 22.0582 48.4643 22.408 48.1593 22.6502C47.8543 22.8834 47.5135 23 47.1367 23C46.7869 23 46.4954 22.9327 46.2622 22.7982C46.0379 22.6636 45.8585 22.4708 45.724 22.2196C45.5894 21.9685 45.4907 21.6635 45.428 21.3047C45.3741 20.9459 45.3472 20.5378 45.3472 20.0803ZM50.6754 18.5868C50.6754 17.636 50.7112 16.6807 50.783 15.7209C50.8548 14.7611 50.9489 13.7879 51.0655 12.8012H49.8412L49.9892 11.9805H51.1732C51.2988 11.0655 51.4243 10.1506 51.5499 9.23568C51.6845 8.31178 51.8056 7.38788 51.9132 6.46397H53.2856C53.2677 6.66131 53.2407 6.94835 53.2049 7.32509C53.178 7.69285 53.1421 8.12341 53.0972 8.61675C53.0613 9.10113 53.0255 9.63484 52.9896 10.2179C52.9537 10.792 52.9178 11.3795 52.8819 11.9805H55.4922L55.3576 12.8012H52.8281C52.7923 13.3125 52.7609 13.8148 52.7339 14.3082C52.707 14.8015 52.6801 15.2724 52.6532 15.7209C52.6353 16.1604 52.6218 16.5686 52.6129 16.9453C52.6039 17.3131 52.5994 17.6315 52.5994 17.9006C52.5994 18.5823 52.6173 19.1519 52.6532 19.6094C52.6981 20.0668 52.7609 20.4346 52.8416 20.7127C52.9313 20.9907 53.0389 21.1881 53.1645 21.3047C53.2991 21.4213 53.4515 21.4796 53.622 21.4796C53.8462 21.4796 54.0929 21.3675 54.362 21.1432C54.6401 20.91 54.9271 20.6005 55.2231 20.2148C55.5191 19.8291 55.8196 19.3806 56.1246 18.8694C56.4295 18.3491 56.7256 17.7975 57.0126 17.2144L57.1471 16.9319L57.6988 17.349L57.5642 17.6315C57.1516 18.4657 56.739 19.2147 56.3264 19.8785C55.9227 20.5422 55.5236 21.1073 55.1289 21.5738C54.7342 22.0312 54.3485 22.3856 53.9718 22.6367C53.5951 22.8789 53.2318 23 52.8819 23C52.5321 23 52.2182 22.9193 51.9401 22.7578C51.671 22.5964 51.4423 22.3407 51.2539 21.9909C51.0655 21.6321 50.922 21.1746 50.8234 20.6185C50.7247 20.0624 50.6754 19.3851 50.6754 18.5868ZM58.0083 12.3572C58.0441 12.2675 58.1293 12.1957 58.2639 12.1419C58.3984 12.0881 58.542 12.0522 58.6944 12.0343C58.8469 12.0074 58.9905 11.9939 59.125 11.9939C59.2596 11.985 59.3493 11.9805 59.3941 11.9805C59.5287 11.9805 59.6139 12.0163 59.6497 12.0881C59.6946 12.1509 59.717 12.2541 59.717 12.3976C59.717 12.4693 59.6946 12.6308 59.6497 12.8819C59.6049 13.1241 59.5466 13.4291 59.4748 13.7969C59.412 14.1646 59.3403 14.5817 59.2596 15.0482C59.1878 15.5146 59.116 15.9945 59.0443 16.4878C58.9815 16.9812 58.9277 17.4835 58.8828 17.9948C58.838 18.4971 58.8155 18.9725 58.8155 19.421C58.8155 20.2014 58.9456 20.7889 59.2057 21.1836C59.4659 21.5693 59.7664 21.7622 60.1072 21.7622C60.6992 21.7622 61.224 21.3271 61.6814 20.457C62.1389 19.587 62.6143 18.3132 63.1076 16.6359V12.7205C63.1076 12.568 63.1749 12.4469 63.3095 12.3572C63.453 12.2585 63.6144 12.1823 63.7938 12.1285C63.9732 12.0747 64.1482 12.0388 64.3186 12.0208C64.489 11.9939 64.6101 11.9805 64.6819 11.9805C64.9599 11.9805 65.099 12.1195 65.099 12.3976C65.099 12.4962 65.09 12.6622 65.0721 12.8954C65.0631 13.1196 65.0496 13.3887 65.0317 13.7027C65.0137 14.0077 64.9958 14.3485 64.9779 14.7253C64.9689 15.093 64.9644 15.4653 64.9644 15.842V21.3181C65.1259 21.1118 65.3277 20.8383 65.5699 20.4974C65.821 20.1565 66.0767 19.7933 66.3368 19.4076C66.6059 19.0218 66.8616 18.6361 67.1037 18.2504C67.3549 17.8647 67.5567 17.5194 67.7092 17.2144L67.8572 16.9319L68.4089 17.349L68.2609 17.6315C68.0725 18.0082 67.8482 18.3984 67.5881 18.8021C67.328 19.2057 67.0499 19.6139 66.7539 20.0265C66.4669 20.4301 66.1664 20.8338 65.8524 21.2374C65.5475 21.6321 65.2515 22.0088 64.9644 22.3676V25.3411C64.9644 26.1664 64.8882 26.866 64.7357 27.4401C64.5922 28.0231 64.3903 28.4941 64.1302 28.8529C63.8701 29.2206 63.5651 29.4852 63.2153 29.6467C62.8655 29.8082 62.4842 29.8889 62.0716 29.8889C61.8115 29.8889 61.5693 29.8485 61.3451 29.7678C61.1298 29.6871 60.9414 29.566 60.78 29.4045C60.6185 29.252 60.4929 29.0637 60.4032 28.8394C60.3135 28.6241 60.2687 28.3775 60.2687 28.0994C60.2687 27.6957 60.3404 27.2921 60.4839 26.8885C60.6364 26.4848 60.8427 26.0677 61.1029 25.6372C61.372 25.2066 61.6814 24.7626 62.0313 24.3051C62.3811 23.8566 62.7578 23.3857 63.1615 22.8924V18.8155C62.9372 19.4255 62.695 19.9906 62.4349 20.5109C62.1748 21.0221 61.8922 21.4617 61.5872 21.8294C61.2823 22.1972 60.9549 22.4842 60.605 22.6905C60.2552 22.8968 59.8785 23 59.4748 23C59.1878 23 58.8918 22.9552 58.5868 22.8655C58.2908 22.7668 58.0127 22.5919 57.7526 22.3407C57.5015 22.0896 57.2951 21.7532 57.1337 21.3316C56.9722 20.901 56.8915 20.3539 56.8915 19.6901C56.8915 18.9366 56.9363 18.1697 57.026 17.3893C57.1157 16.6089 57.2189 15.8824 57.3355 15.2096C57.4611 14.5369 57.5867 13.9494 57.7122 13.447C57.8378 12.9358 57.9365 12.5725 58.0083 12.3572ZM61.9236 29.0681C62.0671 29.0681 62.2107 29.0367 62.3542 28.974C62.5067 28.9201 62.6412 28.7901 62.7578 28.5838C62.8744 28.3775 62.9686 28.0725 63.0404 27.6688C63.1211 27.2652 63.1615 26.718 63.1615 26.0273V23.9957C62.8565 24.3724 62.5739 24.7357 62.3138 25.0855C62.0626 25.4443 61.8429 25.7896 61.6545 26.1215C61.4662 26.4624 61.3181 26.7898 61.2105 27.1037C61.1029 27.4177 61.0491 27.7227 61.0491 28.0187C61.0491 28.2967 61.1253 28.5389 61.2778 28.7452C61.4303 28.9605 61.6455 29.0681 61.9236 29.0681ZM83.5725 17.6315C83.3841 17.9993 83.1644 18.3491 82.9132 18.681C82.671 19.0039 82.4154 19.3044 82.1463 19.5825C81.8772 19.8516 81.6081 20.1027 81.339 20.3359C81.0699 20.5602 80.8232 20.7575 80.599 20.928V22.4753C80.599 23.6503 80.5048 24.6953 80.3164 25.6102C80.137 26.5252 79.8724 27.3011 79.5226 27.9379C79.1817 28.5748 78.7691 29.0592 78.2847 29.3911C77.8093 29.7229 77.2756 29.8889 76.6836 29.8889C76.3607 29.8889 76.0647 29.8216 75.7956 29.6871C75.5265 29.5615 75.2933 29.3866 75.0959 29.1623C74.9076 28.9381 74.7596 28.6735 74.6519 28.3685C74.5443 28.0725 74.4905 27.7541 74.4905 27.4132C74.4905 26.7584 74.5981 26.1529 74.8134 25.5968C75.0376 25.0496 75.3381 24.5294 75.7149 24.036C76.0916 23.5516 76.5266 23.0897 77.02 22.6502C77.5133 22.2017 78.0381 21.7577 78.5942 21.3181C78.6032 20.8248 78.6166 20.3359 78.6346 19.8516C78.6615 19.3672 78.6839 18.9097 78.7018 18.4792C78.7287 18.0486 78.7512 17.6584 78.7691 17.3086C78.796 16.9588 78.8184 16.6717 78.8364 16.4475C78.5314 17.0664 78.1861 17.6764 77.8004 18.2773C77.4236 18.8694 77.02 19.4345 76.5894 19.9727C76.1589 20.5109 75.7059 21.0087 75.2305 21.4661C74.764 21.9146 74.2931 22.3048 73.8177 22.6367C73.3423 22.9686 72.8669 23.2242 72.3915 23.4036C71.9251 23.592 71.4766 23.6862 71.046 23.6862C70.5616 23.6862 70.0997 23.5875 69.6602 23.3902C69.2296 23.2018 68.8484 22.9013 68.5165 22.4887C68.1936 22.0761 67.9379 21.5469 67.7496 20.901C67.5522 20.2552 67.4536 19.4838 67.4536 18.5868C67.4536 17.5822 67.5657 16.5506 67.7899 15.4922C68.0142 14.4337 68.3236 13.3843 68.7183 12.3437C69.113 11.3032 69.5839 10.2852 70.1311 9.2895C70.6782 8.29384 71.2747 7.35648 71.9206 6.47743C72.5664 5.58941 73.2526 4.77763 73.9792 4.0421C74.7057 3.2976 75.4458 2.65625 76.1992 2.11805C76.9527 1.57986 77.7062 1.16276 78.4596 0.866752C79.2221 0.561775 79.9621 0.409287 80.6797 0.409287C81.4332 0.409287 82.0342 0.60214 82.4826 0.987846C82.9401 1.36458 83.1688 1.90278 83.1688 2.60243C83.1688 2.97917 83.0881 3.34693 82.9267 3.70573C82.7742 4.05555 82.5634 4.39641 82.2943 4.7283C82.0342 5.05121 81.7381 5.36068 81.4063 5.65668C81.0744 5.94372 80.7335 6.20833 80.3837 6.45052C80.0428 6.69271 79.702 6.90799 79.3611 7.09635C79.0292 7.28472 78.7332 7.44169 78.4731 7.56727L78.0695 7.01562C78.4103 6.8452 78.7826 6.60301 79.1862 6.28906C79.5899 5.97511 79.9666 5.6208 80.3164 5.22613C80.6662 4.83145 80.9578 4.40538 81.191 3.94792C81.4242 3.49045 81.5408 3.03298 81.5408 2.57552C81.5408 2.18981 81.4377 1.87138 81.2313 1.62022C81.034 1.3601 80.7156 1.23003 80.276 1.23003C79.5943 1.23003 78.8633 1.44083 78.0829 1.86241C77.3115 2.284 76.5401 2.87153 75.7687 3.625C75.0062 4.37847 74.2752 5.27995 73.5755 6.32943C72.8759 7.36994 72.257 8.5136 71.7188 9.76042C71.1806 11.0072 70.75 12.3303 70.4271 13.7296C70.1042 15.1289 69.9427 16.5641 69.9427 18.0352C69.9427 18.681 69.9876 19.2595 70.0773 19.7708C70.1759 20.2821 70.3105 20.7172 70.4809 21.076C70.6603 21.4258 70.8756 21.6994 71.1267 21.8967C71.3869 22.0851 71.6784 22.1793 72.0013 22.1793C72.396 22.1793 72.8265 22.0582 73.293 21.816C73.7594 21.5738 74.2258 21.2464 74.6923 20.8338C75.1677 20.4212 75.6341 19.9457 76.0916 19.4076C76.5491 18.8604 76.9706 18.2863 77.3563 17.6853C77.7421 17.0843 78.0784 16.4744 78.3655 15.8555C78.6525 15.2365 78.8633 14.649 78.9978 14.0929C79.0517 13.4381 79.1055 12.8416 79.1593 12.3034C79.2131 11.7562 79.2624 11.2763 79.3073 10.8637C79.3611 10.4511 79.4105 10.1192 79.4553 9.86805C79.5002 9.60793 79.5405 9.4375 79.5764 9.35677C79.6482 9.22222 79.7513 9.08767 79.8859 8.95312C80.0204 8.81858 80.1639 8.70197 80.3164 8.6033C80.4779 8.49566 80.6348 8.41044 80.7873 8.34766C80.9398 8.28487 81.0699 8.25347 81.1775 8.25347C81.321 8.25347 81.4152 8.31178 81.4601 8.42838C81.5139 8.54499 81.5408 8.67057 81.5408 8.80512C81.5408 9.1998 81.4735 9.72454 81.339 10.3793C81.2044 11.0341 81.034 11.7966 80.8277 12.6667C80.738 13.0434 80.6707 13.5412 80.6259 14.1602C80.59 14.7701 80.5631 15.4249 80.5451 16.1246C80.5362 16.8152 80.5317 17.5149 80.5317 18.2235C80.5317 18.9232 80.5272 19.5511 80.5182 20.1072C81.182 19.6228 81.7112 19.125 82.1059 18.6137C82.5096 18.0935 82.8145 17.627 83.0208 17.2144L83.1688 16.9319L83.7205 17.349L83.5725 17.6315ZM78.5673 22.3138C78.1457 22.6457 77.76 22.9955 77.4102 23.3633C77.0603 23.731 76.7598 24.1257 76.5087 24.5473C76.2665 24.9689 76.0736 25.4264 75.9301 25.9197C75.7956 26.422 75.7283 26.9647 75.7283 27.5477C75.7283 28.1039 75.818 28.5165 75.9974 28.7856C76.1768 29.0637 76.4055 29.2027 76.6836 29.2027C76.9617 29.2027 77.2128 29.0816 77.4371 28.8394C77.6703 28.6062 77.8676 28.216 78.0291 27.6688C78.1995 27.1306 78.3296 26.422 78.4193 25.543C78.5179 24.6639 78.5673 23.5875 78.5673 22.3138ZM94.4575 17.349L94.3095 17.6315C94.0045 18.2415 93.5964 18.7303 93.0851 19.0981C92.5828 19.4569 92.0356 19.6901 91.4436 19.7977C91.2821 20.2552 91.0713 20.6813 90.8112 21.076C90.56 21.4617 90.2685 21.798 89.9366 22.0851C89.6137 22.3721 89.246 22.5964 88.8333 22.7578C88.4297 22.9193 87.9902 23 87.5148 23C86.8241 23 86.2007 22.8565 85.6445 22.5694C85.0974 22.2734 84.6309 21.8788 84.2452 21.3854C83.8595 20.8831 83.5635 20.3001 83.3572 19.6363C83.1509 18.9635 83.0477 18.2459 83.0477 17.4835C83.0477 16.8197 83.124 16.2187 83.2765 15.6806C83.429 15.1334 83.6218 14.649 83.855 14.2274C84.0883 13.7969 84.3484 13.4246 84.6354 13.1107C84.9225 12.7878 85.205 12.5231 85.4831 12.3168C85.7611 12.1105 86.0123 11.958 86.2366 11.8594C86.4698 11.7517 86.6447 11.6979 86.7613 11.6979L86.9362 12.1688C86.5684 12.4379 86.241 12.8147 85.954 13.299C85.7028 13.7117 85.4741 14.2588 85.2678 14.9405C85.0705 15.6223 84.9718 16.4699 84.9718 17.4835C84.9718 18.1024 85.0301 18.7034 85.1467 19.2865C85.2633 19.8695 85.4337 20.3853 85.658 20.8338C85.8822 21.2823 86.1558 21.6411 86.4787 21.9102C86.8106 22.1793 87.1829 22.3138 87.5955 22.3138C88.1606 22.3138 88.627 22.0896 88.9948 21.6411C89.3715 21.1836 89.6496 20.5602 89.829 19.7708C89.3626 19.6722 88.9186 19.4883 88.497 19.2192C88.0754 18.9501 87.7031 18.6182 87.3802 18.2235C87.0573 17.8199 86.7972 17.3579 86.5998 16.8377C86.4115 16.3174 86.3173 15.7523 86.3173 15.1424C86.3173 14.64 86.3801 14.2005 86.5056 13.8238C86.6402 13.4381 86.8151 13.1196 87.0304 12.8685C87.2457 12.6084 87.4923 12.4155 87.7704 12.2899C88.0574 12.1554 88.3579 12.0881 88.6719 12.0881C89.0396 12.0881 89.4164 12.1957 89.8021 12.411C90.1878 12.6173 90.5376 12.9313 90.8516 13.3529C91.1655 13.7655 91.4212 14.2857 91.6185 14.9136C91.8158 15.5415 91.9145 16.2726 91.9145 17.1068C91.9145 17.4207 91.8966 17.7302 91.8607 18.0352C91.8248 18.3401 91.771 18.6361 91.6992 18.9232C92.1298 18.7976 92.52 18.5958 92.8698 18.3177C93.2286 18.0396 93.5246 17.6719 93.7578 17.2144L93.9058 16.9319L94.4575 17.349ZM87.2053 15.0347C87.2053 15.5639 87.2771 16.0528 87.4206 16.5013C87.5731 16.9408 87.7749 17.331 88.026 17.6719C88.2772 18.0038 88.5687 18.2818 88.9006 18.5061C89.2325 18.7303 89.5868 18.8873 89.9635 18.977C90.0084 18.7258 90.0353 18.4657 90.0443 18.1966C90.0622 17.9185 90.0712 17.636 90.0712 17.349C90.0712 16.7121 90.0219 16.138 89.9232 15.6267C89.8245 15.1065 89.6944 14.667 89.533 14.3082C89.3715 13.9404 89.1832 13.6578 88.9679 13.4605C88.7526 13.2632 88.5328 13.1645 88.3086 13.1645C88.0036 13.1645 87.7435 13.3304 87.5282 13.6623C87.3129 13.9852 87.2053 14.4427 87.2053 15.0347ZM113.308 18.1832C113.308 18.9725 113.326 19.5959 113.362 20.0534C113.406 20.5109 113.469 20.8562 113.55 21.0894C113.64 21.3226 113.752 21.4706 113.886 21.5334C114.021 21.5962 114.178 21.6276 114.357 21.6276C114.599 21.6276 114.851 21.5514 115.111 21.3989C115.371 21.2464 115.626 21.049 115.878 20.8069C116.129 20.5647 116.366 20.2956 116.591 19.9996C116.824 19.7036 117.035 19.4165 117.223 19.1385C117.42 18.8514 117.586 18.5868 117.721 18.3446C117.864 18.0935 117.972 17.9006 118.044 17.7661L118.461 16.9319L119.013 17.349L118.595 18.1832C118.524 18.3177 118.407 18.5375 118.246 18.8424C118.084 19.1385 117.882 19.4703 117.64 19.8381C117.398 20.1969 117.124 20.5736 116.819 20.9683C116.514 21.354 116.187 21.7083 115.837 22.0312C115.487 22.3542 115.12 22.6188 114.734 22.8251C114.348 23.0314 113.954 23.1345 113.55 23.1345C113.182 23.1345 112.855 23.0718 112.568 22.9462C112.281 22.8206 112.038 22.6008 111.841 22.2869C111.644 21.964 111.491 21.5289 111.384 20.9818C111.285 20.4256 111.236 19.7215 111.236 18.8694C111.236 18.5375 111.24 18.2235 111.249 17.9275C111.267 17.6225 111.29 17.2548 111.316 16.8242C110.859 17.7122 110.33 18.5689 109.729 19.3941C109.137 20.2193 108.5 20.9504 107.818 21.5872C107.136 22.2241 106.423 22.7309 105.679 23.1076C104.943 23.4933 104.199 23.6862 103.445 23.6862C102.97 23.6862 102.517 23.601 102.086 23.4306C101.656 23.2601 101.275 23 100.943 22.6502C100.611 22.2914 100.346 21.8339 100.149 21.2778C99.9515 20.7216 99.8529 20.0579 99.8529 19.2865C99.8529 18.0486 99.9919 16.8332 100.27 15.6402C100.539 14.4472 100.916 13.2946 101.4 12.1823C101.885 11.0611 102.454 9.99363 103.109 8.98003C103.764 7.95746 104.468 7.01114 105.221 6.14106C105.975 5.27098 106.764 4.48611 107.589 3.78646C108.415 3.07783 109.24 2.47237 110.065 1.97005C110.89 1.46774 111.693 1.08203 112.474 0.812933C113.263 0.543835 113.998 0.409287 114.68 0.409287C115.434 0.409287 116.035 0.60214 116.483 0.987846C116.932 1.36458 117.156 1.90278 117.156 2.60243C117.156 3.06886 117.062 3.52633 116.873 3.97483C116.694 4.41435 116.452 4.84042 116.147 5.25304C115.851 5.65668 115.51 6.04239 115.124 6.41016C114.747 6.76895 114.366 7.09635 113.98 7.39236C113.595 7.6794 113.218 7.93504 112.85 8.15929C112.491 8.37457 112.182 8.54499 111.922 8.67057L111.518 8.11892C111.742 8.00231 111.998 7.84086 112.285 7.63455C112.581 7.42824 112.877 7.18605 113.173 6.90799C113.469 6.62992 113.756 6.32494 114.034 5.99305C114.321 5.6522 114.577 5.29789 114.801 4.93012C115.025 4.55338 115.205 4.16768 115.339 3.773C115.474 3.36936 115.541 2.9702 115.541 2.57552C115.541 2.18981 115.438 1.87138 115.232 1.62022C115.034 1.3601 114.712 1.23003 114.263 1.23003C113.734 1.23003 113.16 1.36907 112.541 1.64713C111.922 1.91623 111.285 2.30194 110.63 2.80425C109.975 3.30657 109.316 3.90755 108.652 4.6072C107.998 5.29789 107.365 6.06481 106.755 6.90799C106.145 7.74219 105.576 8.63918 105.046 9.59896C104.526 10.5498 104.069 11.5409 103.674 12.5725C103.288 13.5951 102.983 14.64 102.759 15.7075C102.535 16.7659 102.423 17.8199 102.423 18.8694C102.423 19.3537 102.459 19.8022 102.53 20.2148C102.602 20.6185 102.719 20.9683 102.88 21.2643C103.042 21.5514 103.252 21.7756 103.513 21.9371C103.773 22.0985 104.096 22.1793 104.481 22.1793C104.966 22.1793 105.441 22.0716 105.908 21.8563C106.374 21.6321 106.827 21.3316 107.267 20.9549C107.706 20.5781 108.128 20.1386 108.531 19.6363C108.944 19.134 109.33 18.5958 109.688 18.0217C110.047 17.4476 110.379 16.8601 110.684 16.2591C110.998 15.6492 111.276 15.0482 111.518 14.4562C111.581 13.7834 111.653 13.1421 111.734 12.5321C111.814 11.9132 111.895 11.3615 111.976 10.8772C112.056 10.3928 112.133 9.99363 112.204 9.67969C112.276 9.35677 112.339 9.15943 112.393 9.08767C112.429 9.02488 112.505 8.95312 112.622 8.87239C112.738 8.79167 112.868 8.71991 113.012 8.65712C113.164 8.58536 113.317 8.52705 113.469 8.4822C113.622 8.42838 113.752 8.40147 113.859 8.40147C114.128 8.40147 114.263 8.53602 114.263 8.80512C114.263 9.05628 114.245 9.3478 114.209 9.67969C114.173 10.0116 114.124 10.3569 114.061 10.7157C113.998 11.0745 113.922 11.4378 113.832 11.8056C113.752 12.1644 113.658 12.4962 113.55 12.8012C113.478 13.7789 113.42 14.7208 113.375 15.6267C113.33 16.5237 113.308 17.3759 113.308 18.1832ZM121.192 23C120.645 23 120.17 22.8834 119.766 22.6502C119.371 22.417 119.044 22.103 118.784 21.7083C118.524 21.3047 118.331 20.8427 118.205 20.3225C118.08 19.8022 118.017 19.2506 118.017 18.6675C118.017 18.1562 118.066 17.636 118.165 17.1068C118.264 16.5775 118.403 16.0663 118.582 15.5729C118.77 15.0706 119.004 14.6042 119.282 14.1736C119.56 13.7341 119.878 13.3529 120.237 13.0299C120.596 12.707 120.995 12.4514 121.434 12.263C121.883 12.0747 122.363 11.9805 122.874 11.9805C123.457 11.9805 123.951 12.1105 124.354 12.3707C124.767 12.6308 125.099 12.9492 125.35 13.326C125.359 11.6306 125.444 10.1327 125.605 8.83203C125.767 7.53139 125.991 6.44155 126.278 5.5625C126.574 4.68345 126.924 4.01967 127.328 3.57118C127.731 3.11371 128.175 2.88498 128.66 2.88498C128.83 2.88498 128.983 2.90741 129.117 2.95226C129.261 2.98814 129.377 3.05989 129.467 3.16753C129.566 3.27517 129.637 3.42318 129.682 3.61154C129.736 3.79094 129.763 4.02416 129.763 4.3112C129.763 4.90321 129.705 5.58492 129.588 6.35634C129.472 7.11878 129.306 7.95298 129.09 8.85894C128.875 9.75593 128.61 10.7157 128.296 11.7383C127.991 12.7519 127.651 13.8058 127.274 14.9002C127.283 15.86 127.296 16.6897 127.314 17.3893C127.332 18.089 127.355 18.681 127.382 19.1654C127.417 19.6497 127.458 20.0444 127.503 20.3494C127.556 20.6544 127.615 20.8921 127.678 21.0625C127.749 21.224 127.83 21.3361 127.92 21.3989C128.018 21.4527 128.126 21.4796 128.243 21.4796C128.449 21.4796 128.655 21.3899 128.862 21.2105C129.077 21.0221 129.306 20.7486 129.548 20.3898C129.79 20.022 130.05 19.5735 130.328 19.0443C130.615 18.515 130.929 17.9051 131.27 17.2144L131.418 16.9319L131.97 17.349L131.822 17.6315C131.301 18.681 130.844 19.5511 130.449 20.2418C130.055 20.9235 129.691 21.4706 129.359 21.8832C129.036 22.2959 128.727 22.5874 128.431 22.7578C128.135 22.9193 127.826 23 127.503 23C127.189 23 126.915 22.9238 126.682 22.7713C126.458 22.6098 126.265 22.3631 126.103 22.0312C125.942 21.6904 125.812 21.2598 125.713 20.7396C125.614 20.2104 125.538 19.578 125.484 18.8424C125.17 19.4703 124.848 20.0399 124.516 20.5512C124.184 21.0625 123.838 21.502 123.48 21.8698C123.13 22.2286 122.762 22.5067 122.376 22.704C121.991 22.9013 121.596 23 121.192 23ZM123.143 12.6667C122.65 12.6667 122.219 12.8192 121.852 13.1241C121.484 13.4201 121.179 13.8103 120.937 14.2947C120.694 14.7701 120.515 15.3083 120.398 15.9093C120.282 16.5103 120.224 17.1113 120.224 17.7122C120.224 18.2056 120.259 18.681 120.331 19.1385C120.412 19.587 120.529 19.9861 120.681 20.3359C120.842 20.6858 121.035 20.9638 121.26 21.1701C121.484 21.3764 121.744 21.4796 122.04 21.4796C122.327 21.4796 122.605 21.4078 122.874 21.2643C123.152 21.1208 123.426 20.8921 123.695 20.5781C123.964 20.2552 124.238 19.8426 124.516 19.3403C124.794 18.829 125.09 18.2101 125.404 17.4835C125.386 17.053 125.372 16.5955 125.363 16.1111C125.354 15.6178 125.35 15.093 125.35 14.5369C125.152 13.9538 124.852 13.4964 124.448 13.1645C124.054 12.8326 123.619 12.6667 123.143 12.6667ZM128.794 4.80903C128.794 4.39641 128.745 4.10937 128.646 3.94792C128.557 3.78646 128.449 3.70573 128.323 3.70573C128.108 3.70573 127.933 3.91652 127.799 4.33811C127.664 4.75072 127.556 5.31134 127.476 6.01996C127.404 6.72859 127.35 7.54933 127.314 8.4822C127.287 9.41507 127.274 10.3973 127.274 11.4288V12.9089C127.552 12.0029 127.79 11.1866 127.987 10.4601C128.184 9.73351 128.341 9.05628 128.458 8.42838C128.575 7.80049 128.66 7.19502 128.714 6.61198C128.767 6.02893 128.794 5.42795 128.794 4.80903ZM135.818 12.9358C135.558 12.9358 135.306 13.0299 135.064 13.2183C134.831 13.3977 134.607 13.6489 134.391 13.9718C134.176 14.2857 133.965 14.658 133.759 15.0885C133.562 15.5101 133.364 15.9631 133.167 16.4475V16.6089C133.14 17.3983 133.113 18.237 133.086 19.125C133.068 20.013 133.059 20.9818 133.059 22.0312C133.059 22.2106 132.997 22.3631 132.871 22.4887C132.754 22.6053 132.615 22.704 132.454 22.7847C132.293 22.8565 132.127 22.9103 131.956 22.9462C131.786 22.9821 131.647 23 131.539 23C131.405 23 131.279 22.9596 131.162 22.8789C131.046 22.7982 130.987 22.6188 130.987 22.3407C130.987 22.2062 131.001 22.0402 131.028 21.8429C131.055 21.6366 131.091 21.4168 131.135 21.1836C131.171 20.9504 131.216 20.7127 131.27 20.4705C131.315 20.2193 131.36 19.9861 131.405 19.7708C131.405 19.0084 131.405 18.3222 131.405 17.7122C131.396 17.1023 131.391 16.5596 131.391 16.0842C131.391 15.6088 131.391 15.1917 131.391 14.8329C131.382 14.4741 131.378 14.1646 131.378 13.9045C131.378 13.474 131.387 13.16 131.405 12.9627C131.413 12.7564 131.431 12.6128 131.458 12.5321C131.503 12.4065 131.584 12.3079 131.701 12.2361C131.826 12.1644 131.956 12.1105 132.091 12.0747C132.225 12.0298 132.36 12.0029 132.494 11.9939C132.629 11.985 132.732 11.9805 132.804 11.9805C132.974 11.9805 133.086 12.0298 133.14 12.1285C133.194 12.2271 133.221 12.3796 133.221 12.5859C133.221 13.0524 133.221 13.474 133.221 13.8507C133.221 14.2274 133.212 14.6042 133.194 14.9809C133.364 14.5773 133.562 14.196 133.786 13.8372C134.019 13.4695 134.275 13.151 134.553 12.8819C134.831 12.6039 135.123 12.3841 135.428 12.2227C135.741 12.0612 136.064 11.9805 136.396 11.9805C136.8 11.9805 137.132 12.0657 137.392 12.2361C137.661 12.3976 137.872 12.6263 138.024 12.9223C138.186 13.2183 138.302 13.5681 138.374 13.9718C138.455 14.3665 138.509 14.797 138.536 15.2635C138.787 14.806 139.056 14.3799 139.343 13.9852C139.639 13.5816 139.948 13.2318 140.271 12.9358C140.603 12.6398 140.948 12.4065 141.307 12.2361C141.675 12.0657 142.056 11.9805 142.451 11.9805C143.133 11.9805 143.631 12.1957 143.944 12.6263C144.258 13.0479 144.415 13.622 144.415 14.3485C144.415 14.806 144.379 15.3173 144.308 15.8824C144.236 16.4475 144.16 17.0216 144.079 17.6046C143.998 18.1787 143.922 18.7438 143.85 19.2999C143.779 19.856 143.743 20.3628 143.743 20.8203C143.743 21.3764 143.882 21.6545 144.16 21.6545C144.303 21.6545 144.46 21.5693 144.631 21.3989C144.801 21.2195 144.994 20.9504 145.209 20.5916C145.433 20.2238 145.689 19.7619 145.976 19.2057C146.272 18.6496 146.613 17.9858 146.999 17.2144L147.133 16.9319L147.685 17.349L147.55 17.6315C147.021 18.69 146.568 19.5645 146.191 20.2552C145.824 20.9459 145.492 21.4975 145.196 21.9102C144.9 22.3138 144.617 22.5964 144.348 22.7578C144.088 22.9193 143.796 23 143.474 23C143.285 23 143.101 22.9731 142.922 22.9193C142.742 22.8655 142.586 22.7713 142.451 22.6367C142.316 22.5022 142.209 22.3228 142.128 22.0985C142.047 21.8653 142.007 21.5693 142.007 21.2105C142.007 20.6723 142.043 20.0668 142.115 19.3941C142.186 18.7214 142.267 18.0486 142.357 17.3759C142.446 16.7031 142.527 16.0707 142.599 15.4787C142.671 14.8777 142.707 14.3889 142.707 14.0122C142.707 13.6803 142.635 13.4157 142.491 13.2183C142.348 13.012 142.133 12.9089 141.845 12.9089C141.558 12.9089 141.258 13.021 140.944 13.2452C140.639 13.4695 140.339 13.761 140.043 14.1198C139.756 14.4696 139.482 14.8643 139.222 15.3038C138.971 15.7433 138.751 16.1784 138.563 16.6089C138.563 17.5508 138.554 18.376 138.536 19.0846C138.518 19.7843 138.491 20.3763 138.455 20.8607C138.428 21.3451 138.388 21.7308 138.334 22.0178C138.28 22.2959 138.222 22.4842 138.159 22.5829C138.114 22.6457 138.038 22.704 137.93 22.7578C137.822 22.8116 137.701 22.8565 137.567 22.8924C137.441 22.9282 137.316 22.9552 137.19 22.9731C137.073 22.991 136.984 23 136.921 23C136.777 23 136.652 22.9596 136.544 22.8789C136.446 22.7892 136.396 22.6188 136.396 22.3676C136.396 22.251 136.405 22.094 136.423 21.8967C136.45 21.6994 136.481 21.4796 136.517 21.2374C136.553 20.9952 136.594 20.7351 136.638 20.457C136.683 20.179 136.728 19.8964 136.773 19.6094C136.782 19.3403 136.791 19.0398 136.8 18.7079C136.809 18.376 136.818 18.0486 136.827 17.7257C136.836 17.3938 136.84 17.0799 136.84 16.7839C136.849 16.4789 136.854 16.2187 136.854 16.0035C136.854 15.546 136.84 15.1289 136.813 14.7522C136.786 14.3754 136.733 14.0525 136.652 13.7834C136.58 13.5143 136.477 13.308 136.342 13.1645C136.208 13.012 136.033 12.9358 135.818 12.9358ZM147.833 17.0799L147.698 17.349L147.564 17.6315L147.012 17.2144L147.147 16.9319C147.371 16.4744 147.555 16.0169 147.698 15.5595C147.851 15.093 147.972 14.658 148.062 14.2543C148.16 13.8507 148.241 13.4964 148.304 13.1914C148.367 12.8864 148.429 12.6667 148.492 12.5321C148.546 12.4245 148.622 12.3393 148.721 12.2765C148.829 12.2047 148.936 12.1464 149.044 12.1016C149.16 12.0567 149.268 12.0253 149.367 12.0074C149.474 11.9894 149.551 11.9805 149.595 11.9805C149.793 11.9805 149.923 12.0208 149.986 12.1016C150.057 12.1823 150.093 12.3258 150.093 12.5321C150.093 12.6308 150.071 12.8775 150.026 13.2721C149.99 13.6578 149.945 14.1467 149.892 14.7387C149.847 15.3218 149.802 15.981 149.757 16.7166C149.721 17.4431 149.703 18.1966 149.703 18.977C149.703 19.5421 149.73 19.9906 149.784 20.3225C149.838 20.6454 149.905 20.8876 149.986 21.049C150.075 21.2105 150.17 21.3137 150.268 21.3585C150.376 21.4034 150.484 21.4258 150.591 21.4258C150.735 21.4258 150.896 21.363 151.076 21.2374C151.255 21.1118 151.466 20.8921 151.708 20.5781C151.95 20.2552 152.228 19.8247 152.542 19.2865C152.856 18.7393 153.224 18.0486 153.645 17.2144L153.793 16.9319L154.345 17.349L154.197 17.6315C153.856 18.2953 153.515 18.9501 153.174 19.5959C152.843 20.2418 152.502 20.8158 152.152 21.3181C151.811 21.8205 151.466 22.2286 151.116 22.5425C150.766 22.8475 150.416 23 150.066 23C149.699 23 149.38 22.9282 149.111 22.7847C148.851 22.6322 148.631 22.3856 148.452 22.0447C148.281 21.7038 148.151 21.2554 148.062 20.6992C147.981 20.1341 147.941 19.4389 147.941 18.6137C147.941 18.3805 147.941 18.1383 147.941 17.8872C147.941 17.627 147.95 17.3579 147.967 17.0799H147.833ZM150.591 9.22222C150.591 9.53617 150.484 9.80078 150.268 10.0161C150.062 10.2224 149.802 10.3255 149.488 10.3255C149.183 10.3255 148.923 10.2224 148.707 10.0161C148.492 9.80078 148.385 9.53617 148.385 9.22222C148.385 8.91724 148.492 8.65712 148.707 8.44184C148.923 8.22656 149.183 8.11892 149.488 8.11892C149.802 8.11892 150.062 8.22656 150.268 8.44184C150.484 8.65712 150.591 8.91724 150.591 9.22222ZM158.974 12.9089C158.722 12.9089 158.44 13.021 158.126 13.2452C157.821 13.4695 157.511 13.761 157.197 14.1198C156.884 14.4696 156.579 14.8643 156.283 15.3038C155.996 15.7433 155.744 16.1784 155.529 16.6089C155.502 17.3983 155.475 18.2594 155.448 19.1923C155.43 20.1251 155.421 21.1208 155.421 22.1793C155.421 22.3138 155.359 22.4349 155.233 22.5425C155.116 22.6412 154.977 22.7264 154.816 22.7982C154.655 22.861 154.489 22.9103 154.318 22.9462C154.148 22.9821 154.009 23 153.901 23C153.767 23 153.641 22.9596 153.524 22.8789C153.408 22.7982 153.349 22.6188 153.349 22.3407C153.349 22.2062 153.363 22.0402 153.39 21.8429C153.417 21.6366 153.453 21.4168 153.497 21.1836C153.533 20.9504 153.578 20.7127 153.632 20.4705C153.677 20.2193 153.722 19.9861 153.767 19.7708V13.1914C153.767 13.012 153.771 12.873 153.78 12.7743C153.78 12.6667 153.793 12.5859 153.82 12.5321C153.874 12.4065 153.968 12.3079 154.103 12.2361C154.237 12.1644 154.381 12.1105 154.533 12.0747C154.686 12.0298 154.834 12.0029 154.977 11.9939C155.121 11.985 155.233 11.9805 155.314 11.9805C155.466 11.9805 155.569 12.0208 155.623 12.1016C155.686 12.1823 155.717 12.3258 155.717 12.5321C155.717 12.5052 155.695 12.725 155.65 13.1914C155.614 13.6578 155.583 14.3261 155.556 15.1962C155.825 14.7746 156.117 14.3709 156.431 13.9852C156.745 13.5995 157.072 13.2587 157.413 12.9627C157.754 12.6667 158.103 12.429 158.462 12.2496C158.83 12.0702 159.202 11.9805 159.579 11.9805C160.252 11.9805 160.745 12.1957 161.059 12.6263C161.373 13.0479 161.53 13.622 161.53 14.3485C161.53 14.806 161.499 15.3173 161.436 15.8824C161.382 16.4385 161.315 17.0081 161.234 17.5911C161.162 18.1652 161.095 18.7303 161.032 19.2865C160.978 19.8336 160.951 20.3359 160.951 20.7934C160.951 21.3854 161.135 21.6814 161.503 21.6814C161.62 21.6814 161.754 21.6231 161.907 21.5065C162.068 21.3809 162.265 21.1522 162.499 20.8203C162.741 20.4884 163.028 20.0354 163.36 19.4614C163.692 18.8783 164.086 18.1293 164.544 17.2144L164.678 16.9319L165.23 17.349L165.095 17.6315C164.557 18.7079 164.077 19.5914 163.656 20.2821C163.243 20.9728 162.866 21.52 162.526 21.9236C162.185 22.3273 161.866 22.6098 161.57 22.7713C161.274 22.9238 160.978 23 160.682 23C160.494 23 160.306 22.9731 160.117 22.9193C159.929 22.8655 159.763 22.7713 159.619 22.6367C159.476 22.5022 159.359 22.3228 159.27 22.0985C159.18 21.8653 159.135 21.5693 159.135 21.2105C159.135 20.6723 159.171 20.0668 159.243 19.3941C159.314 18.7214 159.395 18.0486 159.485 17.3759C159.575 16.7031 159.655 16.0707 159.727 15.4787C159.799 14.8777 159.835 14.3889 159.835 14.0122C159.835 13.6803 159.763 13.4157 159.619 13.2183C159.476 13.012 159.261 12.9089 158.974 12.9089Z" fill="black"/>
</svg>
