<svg width="52" height="52" viewBox="0 0 52 52" fill="none" xmlns="http://www.w3.org/2000/svg">
  <g clip-path="url(#clip0_130_205)">
    <path d="M25.5489 19.7624L21.615 15.8285C22.103 14.5736 22.362 13.2191 22.362 11.7949C22.362 5.63012 17.3723 0.640503 11.2075 0.640503C5.0427 0.640503 0.0530853 5.63012 0.0530853 11.7949C0.0530853 17.9598 5.0427 22.9494 11.2075 22.9494C12.6317 22.9494 13.9862 22.6805 15.241 22.2024L19.175 26.1364L15.241 30.0703C13.9862 29.5823 12.6317 29.3233 11.2075 29.3233C5.0427 29.3233 0.0530853 34.313 0.0530853 40.4778C0.0530853 46.6426 5.0427 51.6322 11.2075 51.6322C17.3723 51.6322 22.362 46.6426 22.362 40.4778C22.362 39.0536 22.0931 37.6991 21.615 36.4442L49.77 8.28926C50.4771 7.58215 50.4771 6.44678 49.77 5.73967C46.9515 2.92119 42.3901 2.92119 39.5717 5.73967L25.5489 19.7624ZM27.7997 34.7611L39.5717 46.533C42.3901 49.3515 46.9515 49.3515 49.77 46.533C50.4771 45.8259 50.4771 44.6906 49.77 43.9835L34.1737 28.3872L27.7997 34.7611ZM6.42705 11.7949C6.42705 11.1672 6.5507 10.5455 6.79094 9.96553C7.03118 9.38554 7.38331 8.85854 7.82722 8.41463C8.27112 7.97073 8.79812 7.6186 9.37811 7.37836C9.95811 7.13812 10.5797 7.01447 11.2075 7.01447C11.8353 7.01447 12.4569 7.13812 13.0369 7.37836C13.6169 7.6186 14.1439 7.97073 14.5878 8.41463C15.0317 8.85854 15.3839 9.38554 15.6241 9.96553C15.8643 10.5455 15.988 11.1672 15.988 11.7949C15.988 12.4227 15.8643 13.0444 15.6241 13.6243C15.3839 14.2043 15.0317 14.7313 14.5878 15.1752C14.1439 15.6192 13.6169 15.9713 13.0369 16.2115C12.4569 16.4518 11.8353 16.5754 11.2075 16.5754C10.5797 16.5754 9.95811 16.4518 9.37811 16.2115C8.79812 15.9713 8.27112 15.6192 7.82722 15.1752C7.38331 14.7313 7.03118 14.2043 6.79094 13.6243C6.5507 13.0444 6.42705 12.4227 6.42705 11.7949ZM11.2075 35.6973C11.8353 35.6973 12.4569 35.8209 13.0369 36.0612C13.6169 36.3014 14.1439 36.6536 14.5878 37.0975C15.0317 37.5414 15.3839 38.0684 15.6241 38.6484C15.8643 39.2284 15.988 39.85 15.988 40.4778C15.988 41.1056 15.8643 41.7272 15.6241 42.3072C15.3839 42.8872 15.0317 43.4142 14.5878 43.8581C14.1439 44.302 13.6169 44.6541 13.0369 44.8944C12.4569 45.1346 11.8353 45.2582 11.2075 45.2582C10.5797 45.2582 9.95811 45.1346 9.37811 44.8944C8.79812 44.6541 8.27112 44.302 7.82722 43.8581C7.38331 43.4142 7.03118 42.8872 6.79094 42.3072C6.5507 41.7272 6.42705 41.1056 6.42705 40.4778C6.42705 39.85 6.5507 39.2284 6.79094 38.6484C7.03118 38.0684 7.38331 37.5414 7.82722 37.0975C8.27112 36.6536 8.79812 36.3014 9.37811 36.0612C9.95811 35.8209 10.5797 35.6973 11.2075 35.6973Z" fill="#F186AD"/>
  </g>
  <defs>
    <clipPath id="clip0_130_205">
      <rect width="50.9917" height="50.9917" fill="white" transform="translate(0.0530853 0.640503)"/>
    </clipPath>
  </defs>
</svg>
