<svg width="102" height="18" viewBox="0 0 102 18" fill="none" xmlns="http://www.w3.org/2000/svg">
<path d="M9.45455 13.2642L4.08523 17.142L6.2017 10.8352L0.818182 6.94318H7.40909L9.45455 0.636363L11.5 6.94318H18.0909L12.7074 10.8352L14.8239 17.142L9.45455 13.2642ZM9.45455 11.9006L12.6932 14.2372L11.4077 10.4162L14.696 8.04403H10.7116L9.45455 4.1946L8.21165 8.04403H4.21307L7.50142 10.4162L6.21591 14.2372L9.45455 11.9006ZM30.3725 13.2642L25.0032 17.142L27.1197 10.8352L21.7362 6.94318H28.3271L30.3725 0.636363L32.418 6.94318H39.0089L33.6254 10.8352L35.7418 17.142L30.3725 13.2642ZM30.3725 11.9006L33.6112 14.2372L32.3256 10.4162L35.614 8.04403H31.6296L30.3725 4.1946L29.1296 8.04403H25.131L28.4194 10.4162L27.1339 14.2372L30.3725 11.9006ZM51.2905 13.2642L45.9212 17.142L48.0376 10.8352L42.6541 6.94318H49.245L51.2905 0.636363L53.3359 6.94318H59.9268L54.5433 10.8352L56.6598 17.142L51.2905 13.2642ZM51.2905 11.9006L54.5291 14.2372L53.2436 10.4162L56.532 8.04403H52.5476L51.2905 4.1946L50.0476 8.04403H46.049L49.3374 10.4162L48.0518 14.2372L51.2905 11.9006ZM72.2085 13.2642L66.8391 17.142L68.9556 10.8352L63.5721 6.94318H70.163L72.2085 0.636363L74.2539 6.94318H80.8448L75.4613 10.8352L77.5778 17.142L72.2085 13.2642ZM72.2085 11.9006L75.4471 14.2372L74.1616 10.4162L77.4499 8.04403H73.4656L72.2085 4.1946L70.9656 8.04403H66.967L70.2553 10.4162L68.9698 14.2372L72.2085 11.9006ZM93.1264 13.2642L87.7571 17.142L89.8736 10.8352L84.4901 6.94318H91.081L93.1264 0.636363L95.1719 6.94318H101.763L96.3793 10.8352L98.4957 17.142L93.1264 13.2642ZM93.1264 11.9006L96.3651 14.2372L95.0795 10.4162L98.3679 8.04403H94.3835L93.1264 4.1946L91.8835 8.04403H87.8849L91.1733 10.4162L89.8878 14.2372L93.1264 11.9006Z" fill="black"/>
</svg>
